<svg width="270" height="31" viewBox="0 0 270 31" fill="none" xmlns="http://www.w3.org/2000/svg">
<path d="M254.012 7C258.808 1.4 266.669 0 270 0H215.041V31H225.034C233.827 31 240.356 24.3333 242.521 21C244.353 18.6667 249.216 12.6 254.012 7Z" fill="#231F20"/>
<rect width="165" height="31" transform="translate(53)" fill="#231F20"/>
<path d="M0 0.014854C0.360019 -0.00408528 0.777772 -0.00579887 1.24312 0.014854L57 0.0148549V31H46C38 31 32 26.3356 30 24.0034C27.5 20.8382 21.2 13.0086 16 7.0115C11.3912 1.69619 4.87089 0.175861 1.24312 0.014854L0 0.014854Z" fill="#231F20"/>
</svg>
