<svg xmlns="http://www.w3.org/2000/svg" viewBox="0 0 36.54 36.54"><defs><style>.cls-1{fill:#d39c42;}</style></defs><g id="Layer_2" data-name="Layer 2"><g id="Layer_1-2" data-name="Layer 1"><path class="cls-1" d="M.85,36.54a.73.73,0,0,1-.77-1,1.71,1.71,0,0,1,.32-.39q3.51-3.51,7-7l.18-.17a.71.71,0,1,1,1,1,1.37,1.37,0,0,1-.17.17l-7,7A3.09,3.09,0,0,1,.85,36.54Z"/><path class="cls-1" d="M6.92,26.34a3.1,3.1,0,0,1-.38.61c-1.41,1.43-2.83,2.84-4.25,4.26a.73.73,0,0,1-1.08.08.72.72,0,0,1,.07-1.08l4.28-4.28a.67.67,0,0,1,.84-.18A2.74,2.74,0,0,1,6.92,26.34Z"/><path class="cls-1" d="M10.85,30.55a1.93,1.93,0,0,1-.27.44L6.33,35.25a.72.72,0,1,1-1-1C6.73,32.82,8.15,31.41,9.57,30a.71.71,0,0,1,.87-.21A.72.72,0,0,1,10.85,30.55Z"/><path class="cls-1" d="M7.37,22.42,9.72,21l5.8,5.8-1.41,2.35Z"/><path class="cls-1" d="M14,11.42l-.25.27q-2.69,2.7-5.39,5.38a.62.62,0,0,1-.46.18c-1-.12-2-.28-3.06-.43a.51.51,0,0,1-.17-.05c.07-.08.12-.16.18-.22l4.43-4.43a.7.7,0,0,1,.35-.2C11.05,11.74,12.48,11.59,14,11.42Z"/><path class="cls-1" d="M25.11,22.57c-.14,1.21-.31,2.36-.37,3.52a2.47,2.47,0,0,1-.87,1.73c-1.29,1.24-2.54,2.52-3.81,3.79l-.23.27-.09,0c0-.36-.11-.71-.16-1.06-.1-.72-.22-1.44-.31-2.15a.59.59,0,0,1,.13-.41L25,22.67Z"/><path class="cls-1" d="M27.47,13.34A4.28,4.28,0,1,1,23.2,9.06,4.29,4.29,0,0,1,27.47,13.34Zm-1.43,0a2.85,2.85,0,0,0-5.7,0,2.9,2.9,0,0,0,2.86,2.84A2.86,2.86,0,0,0,26,13.32Z"/><path class="cls-1" d="M12.17,19a.7.7,0,0,1-.7-.7.7.7,0,0,1,.71-.7.72.72,0,0,1,.7.71A.71.71,0,0,1,12.17,19Z"/><path class="cls-1" d="M27.94,1.3c-.65.19-1.3.4-1.94.64a17.47,17.47,0,0,0-6.82,4.3C18.09,7.38,17,8.48,15.83,9.59a.86.86,0,0,1-.46.24c-2,.23-4,.45-6,.66a1.47,1.47,0,0,0-1,.43c-1.88,1.9-3.78,3.79-5.67,5.68a2,2,0,0,0-.2.21A.71.71,0,0,0,3,18l.38.07,3.92.56c.08,0,.19,0,.24.06.4.41.8.82,1.21,1.26-1,.59-1.93,1.15-2.87,1.73a.72.72,0,0,0-.16,1.26l7.89,7.9a.78.78,0,0,0,1.27-.16l1.55-2.56.24-.36c.37.41.73.77,1.07,1.15a.74.74,0,0,1,.19.36l.6,4.12a.77.77,0,0,0,.52.74.83.83,0,0,0,.85-.31C21.81,31.88,23.74,30,25.65,28a1.46,1.46,0,0,0,.37-.77c.24-2,.45-4,.68-6.06a.91.91,0,0,1,.24-.49L30.65,17a15.9,15.9,0,0,0,2.66-3.6,24.46,24.46,0,0,0,1.93-4.8ZM8.35,17.07a.62.62,0,0,1-.46.18c-1-.12-2-.28-3.06-.43a.51.51,0,0,1-.17-.05c.07-.08.12-.16.18-.22l4.43-4.43a.7.7,0,0,1,.35-.2l4.37-.5-.25.27Zm4.53,1.24a.71.71,0,0,1-.71.69.7.7,0,0,1-.7-.7.7.7,0,0,1,.71-.7A.72.72,0,0,1,12.88,18.31Zm1.23,10.85L7.37,22.42,9.72,21l5.8,5.8C15.07,27.57,14.57,28.39,14.11,29.16Zm10.63-3.07a2.43,2.43,0,0,1-.87,1.73c-1.29,1.24-2.54,2.52-3.81,3.79l-.23.27-.09,0c0-.36-.11-.71-.16-1.06-.1-.72-.22-1.44-.31-2.15a.59.59,0,0,1,.13-.41L25,22.67l.15-.1C25,23.78,24.8,24.93,24.74,26.09Zm-1.56-8.47a4.28,4.28,0,0,1,0-8.56,4.28,4.28,0,0,1,0,8.56ZM36.53,0a23.41,23.41,0,0,0-4.14.33,31.86,31.86,0,0,0-3.72.76l6.77,6.76c.09-.35.17-.7.25-1.05h0v0c.22-1,.39-2,.54-3,.11-.81.19-1.63.29-2.44V1A7.49,7.49,0,0,0,36.53,0Z"/></g></g></svg>