<svg xmlns="http://www.w3.org/2000/svg" viewBox="0 0 296.34 156.18"><defs><style>.cls-1{fill:#d39c42;}</style></defs><g id="Layer_2" data-name="Layer 2"><g id="Layer_1-2" data-name="Layer 1"><path class="cls-1" d="M144.15,42.38v-.73h-3.72a1.82,1.82,0,0,1-1.84-2.32l2.33-5.59h10.76l2.94,7.91h-4.77v.73H164v-.73H159.5c-1-2.4-10.53-25-11.17-26s-1.22,0-1.22,0L143,25.58s-3.93,9.63-5,12.64a6.9,6.9,0,0,1-1.55,2.59,2.7,2.7,0,0,1-1.94.83h-2.14v.73h11.8Zm-.22-15.74,2.46-6,2.46,6,2.46,6h-9.84Z"/><path class="cls-1" d="M126.09,42.36v.44a11,11,0,0,0,1.81,6.06,30.63,30.63,0,0,0,4.07,4.8c5.72,5.65,14.09,7.37,16.21,12.94,2.12-5.57,10.49-7.29,16.21-12.94a30.63,30.63,0,0,0,4.07-4.8,11,11,0,0,0,1.81-6.06v-.44s.54-6.06,1-13.3,3.5-16,3.5-16C164.18,13.85,148.19,0,148.19,0s-16,13.85-26.54,13.07c0,0,3.07,8.75,3.5,16S126.09,42.36,126.09,42.36ZM148.17,3.51h0S161.7,16.18,170.7,15a68.69,68.69,0,0,0-2.85,14.16c-.36,6.38-.67,11.79-.67,11.79L167,43s-.13,2.8-5,7.78-12.44,6.25-13.85,11.4c-1.4-5.16-9-6.43-13.85-11.4s-5-7.78-5-7.78l-.15-2.11s-.31-5.41-.67-11.79A68.69,68.69,0,0,0,125.62,15C134.64,16.18,148.17,3.51,148.17,3.51Z"/><path class="cls-1" d="M184.35,39.42c2.24.68,21.58.71,20.77,23.3l.15-.69a28.66,28.66,0,0,0,.65-6.05c0-.16,0-.32,0-.48a17.06,17.06,0,0,0-4.15-10.59A28,28,0,0,0,197,40.37a38.74,38.74,0,0,0-10.72-5.9c-7.06-2.72-6-7.13-6.86-10.93,0,0-2.78,4.62-2.17,9S182.11,38.75,184.35,39.42Z"/><path class="cls-1" d="M190.51,43a.65.65,0,0,0,.14-.42.86.86,0,0,0-.42-.66,1.69,1.69,0,0,0-1.42-.21,3.38,3.38,0,0,0-1.72,1,2.69,2.69,0,0,0-.64,1.67l-.1,2.67-.6.81a2.45,2.45,0,0,0-.48,1.38,8.92,8.92,0,0,0,0,1.51,5.33,5.33,0,0,0,1.86,2.36A3.31,3.31,0,0,1,188.32,55l.21,1a8.27,8.27,0,0,0,1.7,3.54l.15.17c.45.5.76.25.94-.07a1.75,1.75,0,0,0,.23-.9,8.06,8.06,0,0,1,.37-2.39c.06-.18.11-.36.16-.53a5.07,5.07,0,0,0-.07-1.92l-.15-1.5a2.09,2.09,0,0,1,.22-1.15,8.72,8.72,0,0,1,1-1.51c.61-.72,0-1.13,0-1.13l-.35-.28-1.8-1.25a2,2,0,0,1-.79-1.13l-.17-.64a2.43,2.43,0,0,1,.37-2Z"/><path class="cls-1" d="M172.88,76.57a9.58,9.58,0,0,0,1.09.55c.62.27,1.2-.17.83-1.12a5.1,5.1,0,0,0-4.12-3c-2.59-.41-4.57.21-4.75,2.23s1.07,1,1.07,1l1.23-1.06s1-.77,1.15,1a2.91,2.91,0,0,1-2.29,3.25c-1.47.4-3.68-2-3.4-4.29s2.56-3.25,4.34-3.36a7,7,0,0,1,6,1.9c2.18,2.07,5.75,5.66,11,5.27a36,36,0,0,1-5.48-4.32c-1.52-1.74-4.52-6.22-10.5-6.09a7.17,7.17,0,0,0-4.8.88c-2.47,1.43-6.54,5.86-6.54,5.86l-9.59,9.73-9.59-9.73s-4.07-4.43-6.54-5.86a7.1,7.1,0,0,0-4.8-.88c-6-.14-9,4.34-10.5,6.09a36,36,0,0,1-5.48,4.32c5.29.38,8.86-3.2,11-5.27a7,7,0,0,1,6-1.9c1.79.11,4.07,1.11,4.34,3.36s-1.93,4.68-3.41,4.29A2.93,2.93,0,0,1,127,76.08c.15-1.72,1.15-1,1.15-1l1.23,1.06s1.25,1,1.07-1-2.16-2.64-4.75-2.23a5.12,5.12,0,0,0-4.12,3c-.38,1,.2,1.39.83,1.12a9.58,9.58,0,0,0,1.09-.55s-.07,2.87,1.49,4.52,6.09,2.49,8.53.66A6.17,6.17,0,0,0,135.85,77l12.31,10.14h0L160.47,77a6.14,6.14,0,0,0,2.38,4.71c2.44,1.83,7,1,8.53-.66S172.88,76.57,172.88,76.57Z"/><path class="cls-1" d="M186.36,76.81c-.73.33-1.88,1-1.29,1.55a1.82,1.82,0,0,0,1.09.46,3.06,3.06,0,0,0,2.21-.66A6.41,6.41,0,0,0,191,74.39a4.12,4.12,0,0,0-2.43-4.77c-1.56-.83-4.31-.12-4.87.8a1.49,1.49,0,0,0,.66,2.41,1.9,1.9,0,0,0,2.13-.56.37.37,0,0,1,.55,0,2.84,2.84,0,0,1,.79,3A2.67,2.67,0,0,1,186.36,76.81Z"/><path class="cls-1" d="M183.33,81.8c9.41,1.22,11.63-2.08,12.72-4s1.16-5.12-.54-8.14c-1.57-2.79-6.76-4-6.76-4,2.1,1.88,6,6.58,4.58,10.48s-4.1,4.34-8.05,4.25a35.39,35.39,0,0,1-8.82-1.76C178.4,81.12,183.33,81.8,183.33,81.8Z"/><path class="cls-1" d="M192.78,82.32c2.57-.25,7.27-3.33,10.35-5.52s11.7-10.34,13.73-12.08,4.37-4.07,11.58-4.73a17.59,17.59,0,0,1,12.22,3.67s-4.14-6.29-8.76-7.72a16.38,16.38,0,0,0-9.21.18C217.46,57.75,214,63,208.38,69S192.78,82.32,192.78,82.32Z"/><path class="cls-1" d="M240.1,70.92c.24-2.78.24-6.79-5.43-8.76s-10.77-.93-14.24,2c0,0,7.22-1.06,10.27-.38S239,66.48,237.76,75A5.39,5.39,0,0,0,240.1,70.92Z"/><path class="cls-1" d="M236.2,73.65l.11.14a6.56,6.56,0,0,0-4-8c-5.74-2.4-13.62,1.15-13.62,1.15a35,35,0,0,0-9,6.58c-4.16,4.3-9.59,9.68-16.38,10.59a87.47,87.47,0,0,1-14.42.35,8.51,8.51,0,0,1-1.88-.33,11,11,0,0,1-3.79-1.86,1.27,1.27,0,0,0-.63-.32.75.75,0,0,0-1,.74c-.14,1.2-.27,1.7.68,2.08a25.84,25.84,0,0,0,5.27,1.13c.89,0,10.27.34,11.87.4h.49c1.17-.05,6-.35,8.7-1.64,3.08-1.47,3.76-1.45,6.54-3.3s7.17-6,9.57-7.13S228,64.94,236.2,73.65Z"/><path class="cls-1" d="M193.28,36.37c4.21,2.26,8.73,7.1,8.73,7.1,4.71,6,4.89,8.6,5.34,13.12,0,.38.06.75.07,1.11a15.33,15.33,0,0,1-2.14,8.11l-6.91,11.78a101.63,101.63,0,0,0,8.3-9.73c2.71-3.94,5.75-8.91,4-16s-9.41-14.16-9.41-14.16-4.75-5-6.79-6.92a38.89,38.89,0,0,1-6.88-9.55c-2-3.85-2.08-10.86-2.08-10.86s-5.07,7.06-4.25,13.67S189.07,34.11,193.28,36.37Z"/><path class="cls-1" d="M106.23,45.93a2,2,0,0,1-.79,1.13l-1.8,1.25-.35.28s-.61.41,0,1.13a8.72,8.72,0,0,1,1,1.51,2,2,0,0,1,.22,1.15l-.15,1.5a5.07,5.07,0,0,0-.07,1.92c0,.17.1.35.16.53a8.06,8.06,0,0,1,.37,2.39,1.77,1.77,0,0,0,.23.9c.19.32.5.57.94.07l.15-.17A8.21,8.21,0,0,0,107.8,56l.21-1a3.31,3.31,0,0,1,1.15-1.88A5.55,5.55,0,0,0,111,50.77a8.92,8.92,0,0,0,0-1.51,2.45,2.45,0,0,0-.48-1.38l-.6-.81-.1-2.67a2.69,2.69,0,0,0-.64-1.67,3.52,3.52,0,0,0-1.72-1,1.66,1.66,0,0,0-1.42.21.87.87,0,0,0-.42.66.71.71,0,0,0,.14.42l.2.28a2.45,2.45,0,0,1,.37,2Z"/><path class="cls-1" d="M118.85,39.83s-6.33,3.5-6.58,12.87a1.21,1.21,0,0,1-.26.71L111,54.72s-.94,1.88,0,3.2l.74,1,0,0a.61.61,0,0,1,.21.47v.84a1.53,1.53,0,0,1,0,.3,2,2,0,0,0,0,1.26l.23.28a.6.6,0,0,1,.14.37l0,.75a.47.47,0,0,0,.33.42,28.59,28.59,0,0,0,5.38,1c4.1.43,11.65,1.83,15.48,3.94s8.94,2.73,14.64,13.09h0c5.7-10.35,10.81-11,14.64-13.09s11.38-3.51,15.48-3.94a29.32,29.32,0,0,0,5.38-1,.47.47,0,0,0,.33-.42l.05-.75a.73.73,0,0,1,.14-.37l.23-.28a2,2,0,0,0,0-1.26,1.53,1.53,0,0,1,0-.3v-.84a.64.64,0,0,1,.21-.47l0,0,.74-1c.94-1.32,0-3.2,0-3.2l-1.06-1.31a1.21,1.21,0,0,1-.26-.71c-.24-9.37-6.58-12.87-6.58-12.87,6,13-7.6,17.81-15.48,22.19s-13.85,12.67-13.85,12.67-6-8.28-13.85-12.67S112.88,52.81,118.85,39.83Z"/><path class="cls-1" d="M109.87,72.28a1.93,1.93,0,0,0,2.13.56,1.49,1.49,0,0,0,.66-2.41c-.56-.92-3.31-1.63-4.87-.8a4.13,4.13,0,0,0-2.43,4.77A6.38,6.38,0,0,0,108,78.17a3.06,3.06,0,0,0,2.21.66,1.81,1.81,0,0,0,1.09-.46c.59-.57-.55-1.22-1.29-1.55a2.72,2.72,0,0,1-1.46-1.57,2.86,2.86,0,0,1,.79-3A.38.38,0,0,1,109.87,72.28Z"/><path class="cls-1" d="M113,81.8s4.93-.68,6.88-3.26a35.51,35.51,0,0,1-8.82,1.76c-3.94.09-6.58-.36-8-4.25s2.47-8.6,4.58-10.48c0,0-5.32,1.2-6.76,4.05s-1.63,6.19-.54,8.14S103.6,83,113,81.8Z"/><path class="cls-1" d="M67.9,60c7.22.66,9.55,3,11.58,4.73S90.14,74.61,93.21,76.8s7.77,5.27,10.35,5.52c0,0-10-7.4-15.6-13.37s-9.09-11.2-14.31-12.83a16.38,16.38,0,0,0-9.21-.18c-4.62,1.43-8.76,7.72-8.76,7.72A17.59,17.59,0,0,1,67.9,60Z"/><path class="cls-1" d="M65.64,63.72c3-.68,10.27.38,10.27.38-3.47-2.87-8.57-3.91-14.24-1.95s-5.67,6-5.43,8.76a5.4,5.4,0,0,0,2.34,4C57.32,66.47,62.58,64.4,65.64,63.72Z"/><path class="cls-1" d="M123.35,82.06a10.59,10.59,0,0,1-4.13,2.1,7.39,7.39,0,0,1-1.68.29,86.93,86.93,0,0,1-14.48-.34c-6.79-.9-12.22-6.29-16.38-10.59a34.49,34.49,0,0,0-9-6.58S69.78,63.39,64,65.79a6.54,6.54,0,0,0-4,8l.11-.14c8.21-8.71,19.07-.59,21.47.57s6.79,5.27,9.57,7.13,3.46,1.83,6.54,3.3c2.79,1.33,7.9,1.61,8.82,1.65h.27c1.25,0,11.06-.4,12-.4a25.84,25.84,0,0,0,5.27-1.13c1-.38.81-.88.68-2.08S123.35,82.06,123.35,82.06Z"/><path class="cls-1" d="M200.18,34.78s-6.55-10.91,2.95-13.89c0,0-5.45-1.45-8.62,1.4a4.51,4.51,0,0,0-.82,5.59A24,24,0,0,0,200.18,34.78Z"/><path class="cls-1" d="M202.66,28.56a1.28,1.28,0,0,0-1.11.89c-2.25,7.27,6.84,14.4,6.84,14.4-5.06-6.4-3.47-11.13-2.89-12.39a1.28,1.28,0,0,0,.09-.82A2.5,2.5,0,0,0,202.66,28.56Z"/><path class="cls-1" d="M110,34.47a38.54,38.54,0,0,0-10.72,5.9,28.77,28.77,0,0,0-4.72,4.54A17,17,0,0,0,90.44,55.5c0,.16,0,.32,0,.48A28.59,28.59,0,0,0,91.08,62l.15.69C90.42,40.14,109.76,40.1,112,39.42s6.45-2.58,7.06-6.92-2.17-9-2.17-9C116,27.34,117.08,31.75,110,34.47Z"/><path class="cls-1" d="M98,77.59,91.05,65.81a15.33,15.33,0,0,1-2.14-8.11c0-.36,0-.73.07-1.11.45-4.52.63-7.15,5.34-13.12,0,0,4.52-4.84,8.73-7.1s11.18-5.7,12-12.31-4.25-13.67-4.25-13.67-.14,7-2.08,10.86a38.89,38.89,0,0,1-6.88,9.55c-2,1.95-6.79,6.92-6.79,6.92s-7.69,7.1-9.41,14.16,1.31,12,4,16A102.44,102.44,0,0,0,98,77.59Z"/><path class="cls-1" d="M99.48,63.88c4-1.66,3.07-4.41,3.07-4.41,1.7-1.86-.53-4.78-.53-4.78a4.33,4.33,0,0,0,.18-3.76A1.56,1.56,0,0,0,100,50.1c-11.64,5.79-2.41,23-2.41,23-3.73-14.75,1.74-18.45,1.74-18.45a3.27,3.27,0,0,1,1.08,4.78C102.32,61.62,99.48,63.88,99.48,63.88Z"/><path class="cls-1" d="M96.16,34.78a24.39,24.39,0,0,0,6.49-6.9,4.51,4.51,0,0,0-.82-5.59c-3.18-2.85-8.62-1.4-8.62-1.4C102.71,23.88,96.16,34.78,96.16,34.78Z"/><path class="cls-1" d="M94.79,29.45a1.28,1.28,0,0,0-1.11-.89,2.51,2.51,0,0,0-2.93,2.08,1.29,1.29,0,0,0,.09.82c.58,1.26,2.18,6-2.89,12.39C88,43.85,97,36.71,94.79,29.45Z"/><path class="cls-1" d="M193.79,59.47s-.94,2.74,3.07,4.41c0,0-2.84-2.26-1-4.41A3.27,3.27,0,0,1,197,54.69s5.48,3.7,1.74,18.45c0,0,9.23-17.25-2.41-23a1.56,1.56,0,0,0-2.16.83,4.36,4.36,0,0,0,.18,3.76S192.09,57.61,193.79,59.47Z"/><path class="cls-1" d="M296.34,85,264.86,82.6c-1.27-4.22-6-12-23.09-6.47-13,4.22-28.63,9.08-29.5,4.81a2.86,2.86,0,0,1,1.58-3.12s-4.08.5-3,4.37c1.31,4.84,14.93,3.19,25.53.33,11.92-3.21,21-5.26,25.11.32l-5.92,2.68Z"/><path class="cls-1" d="M82.49,77.81a2.86,2.86,0,0,1,1.58,3.12c-.86,4.27-16.47-.59-29.5-4.81-17.13-5.55-21.82,2.25-23.09,6.47L0,85l40.79.49-5.92-2.68C39,77.25,48.06,79.3,60,82.51c10.6,2.85,24.22,4.51,25.53-.33C86.57,78.31,82.49,77.81,82.49,77.81Z"/><polygon class="cls-1" points="153.46 98.47 153.46 98.01 142.6 98.01 142.6 98.47 146.22 98.47 146.22 115.03 142.6 115.03 142.6 115.49 146.22 115.49 149.82 115.49 153.46 115.49 153.46 115.03 149.82 115.03 149.82 98.47 153.46 98.47"/><path class="cls-1" d="M198.07,107.63h-6.74v.45h4s0,2.48,0,3.23a5.87,5.87,0,0,1-.24,1.36,3.38,3.38,0,0,1-1.4,1.66,7.43,7.43,0,0,1-3.31.78h-.25c-4.59,0-4.77-2.55-5-6.24-.1-1.66,0-3.46,0-5.06,0-4.43,2.25-5.46,5.06-5.48h.09a8.28,8.28,0,0,1,4.9,1.73,14.86,14.86,0,0,1,3.16,4.55l.11.21V98.2l-3,1.67s-1.56-1.67-5.21-1.87a8.84,8.84,0,0,0-9.09,8.71,9,9,0,0,0,9.09,8.89h0a7,7,0,0,0,5.49-2.43,6.93,6.93,0,0,1,2.43,2.24v-7.34H202v-.45h-4Z"/><path class="cls-1" d="M102.15,98a8.76,8.76,0,1,0,9.28,8.74A9,9,0,0,0,102.15,98Zm5.17,10.85c-.23,3.65-.41,6.14-5.17,6.14s-4.94-2.49-5.17-6.14c-.1-1.63,0-3.4,0-5,0-4.39,2.32-5.39,5.22-5.39s5.22,1,5.22,5.39C107.37,105.46,107.42,107.23,107.32,108.86Z"/><path class="cls-1" d="M238,98a8.76,8.76,0,1,0,9.28,8.74A9,9,0,0,0,238,98Zm5.17,10.85c-.23,3.65-.41,6.14-5.17,6.14s-4.94-2.49-5.17-6.14c-.1-1.63,0-3.4,0-5,0-4.39,2.32-5.39,5.22-5.39s5.22,1,5.22,5.39C243.18,105.46,243.23,107.23,243.13,108.86Z"/><path class="cls-1" d="M223.75,101.82a9.56,9.56,0,0,0-4.43-3.09,11.54,11.54,0,0,0-2.66-.55,37,37,0,0,0-4-.18h-8.92v.46h3.63V115h-3.63v.46h9a25.36,25.36,0,0,0,4.22-.29,12.88,12.88,0,0,0,3.07-.93,9.4,9.4,0,0,0,4-3.19,7.9,7.9,0,0,0,1.4-4.59A7.38,7.38,0,0,0,223.75,101.82Zm-2.83,7.33c-.17,1.5-.17,3.61-2.09,4.74a8.5,8.5,0,0,1-3.06.86,14.06,14.06,0,0,1-2.15.16h-.14c-.53,0-.88,0-.88,0h-1.74V98.41h3.64s5-.16,5.93,3.07a19.76,19.76,0,0,1,.59,4.87v.15C221,108,220.92,109.15,220.92,109.15Z"/><path class="cls-1" d="M132.65,100.2s1.84-1.73,3.35-1.73h2.22V98H129v.46h2.13a1,1,0,0,1,1,.58.73.73,0,0,1-.09.62l-1.82,1.52L123.16,107V98.47h3.16V98H116.4v.46h3.16V115H116.4v.46h9.92V115h-3.16v-7.18l2.37-1.93,6.05,9.1H129v.46h9.2V115h-2.73l-7.74-10.88,2.25-1.82Z"/><path class="cls-1" d="M34.23,115.27v.21H44.67V115H41.34c-.75-1.54-7.77-16.07-8.23-16.71a.5.5,0,0,0-.9,0l-3.05,6.39s-2.9,6.19-3.68,8.12a4.5,4.5,0,0,1-1.14,1.67,2.14,2.14,0,0,1-1.43.54H21.33v.47H30V115H27.28c-1.72,0-1.36-1.49-1.36-1.49l1.72-3.59h7.93L37.74,115H34.23v.18m-4.35-9.82,1.81-3.86,1.81,3.86,1.81,3.86H28.05Z"/><path class="cls-1" d="M163.93,98h-6.61v.47h3.11c.36,0,.79.08.79.51v12.86h0v.46h0v1.23C161.05,115,159,115,159,115h-1.64v.51H166V115h-1.64s-2.22,0-2.26-1.59v-1.08h0v-.46h0c0-3.15,0-10,0-12.18l5.42,6.92,7.25,8.89h.63V101.64h0v-.36h0V99.94c.18-1.44,2.25-1.44,2.25-1.44h1.64V98h-8.65v.51h1.64s2.19,0,2.26,1.57v1.1h0v.46h0v.09c0,2.57,0,7.2,0,8.73L164,98"/><path class="cls-1" d="M81.67,98H70.37v7h.31a7,7,0,0,1,2.48-5.4,5.32,5.32,0,0,1,3.45-1.19h1.71V115h0v0H74.1v.46h.33v0H85.87V115h0v0H81.68V98.48h1.71a5.3,5.3,0,0,1,3.45,1.19,6.91,6.91,0,0,1,2.48,5.4h.31V98h-8Z"/><path class="cls-1" d="M275,98.47V98h-7.36l-.95,1.78-5,11.21-5.79-13h-7.14v.47h2.72c.32,0,1.17-.1,1.17.51v12.83h0v.46h0v1.22c-.17,1.45-2.25,1.44-2.25,1.44h-1.64v.51h8.65v-.51h-1.64s-2.22,0-2.26-1.59v-1.07h0v-.46h0c0-2.71,0-8.17,0-11l6.85,14.54h.17l7.16-15.54.12-.23V115H263.9v.46H275V115h-3.87V98.49H275Z"/><path class="cls-1" d="M61.87,98.16H57.45v.51h1.64s2.29,0,2.27,1.66c0,.22,0,.58,0,1.05h0c0,2.57,0,7.8,0,8.61a4.58,4.58,0,0,1-1.42,3.72,6.87,6.87,0,0,1-4.23,1,6.42,6.42,0,0,1-4-1,4,4,0,0,1-1.31-3.26V99.94h0V98.63h3.8v-.46H43.37v.46H47v10.31h0v.44a10,10,0,0,0,.23,2.5,3.39,3.39,0,0,0,.79,1.38,6.21,6.21,0,0,0,2.77,1.63,14.6,14.6,0,0,0,4.27.54c2.58,0,4.43-.42,5.57-1.25s1.6-2.21,1.56-4.11h0V110h0c0-.77,0-6.35,0-8.85h0c0-.36,0-.65,0-.83,0-1.67,2.27-1.66,2.27-1.66H66.1v-.51H61.87Z"/><path class="cls-1" d="M16.16,128.64h99.41l-15.06,5.26s-5.56.65-5.5-2.63c0,0-10.18,3.83-12.4-.69Z"/><path class="cls-1" d="M280.18,128.64H180.77l15.06,5.26s5.56.65,5.5-2.63c0,0,10.18,3.83,12.4-.69Z"/><path class="cls-1" d="M148.17,138.41c-2.55-2.64-7.75-3.83-10.3-3-4.93,1.69-7.32,4.13-11.35,5.33-2.69.8-7.12,1.28-9.35-1.2a4.59,4.59,0,0,1-1.37-4.13c.58-4.89,5.65-5.71,5.65-5.71s-5,2.06-2.57,6.44a2.64,2.64,0,0,1,1.26-3.28c2.12-1.31,5.77.15,5,2.55,0,0-2.47,1.3-2.26-.8,0,0-3.35-1.11-2.7,2.92s9.09,1.17,8.14-2.12a5,5,0,0,1,7.59-5.39s-3-.47-2.35,2.14c.71,3,8.52,2.08,11,0a24.27,24.27,0,0,0,3.66-3.2,25.28,25.28,0,0,0,3.66,3.2c2.48,2.08,10.29,3,11,0,.62-2.61-2.35-2.14-2.35-2.14a5,5,0,0,1,7.59,5.39c-1,3.28,7.49,6.15,8.14,2.12s-2.7-2.92-2.7-2.92c.21,2.1-2.26.8-2.26.8-.8-2.41,2.85-3.87,5-2.55a2.64,2.64,0,0,1,1.27,3.28c2.43-4.38-2.57-6.44-2.57-6.44s5.07.82,5.65,5.71a4.62,4.62,0,0,1-1.37,4.13c-2.24,2.48-6.66,2-9.35,1.2-4-1.2-6.42-3.64-11.35-5.33C155.92,134.58,150.73,135.77,148.17,138.41Z"/><path class="cls-1" d="M148.17,156.18c-3.19-2.59-4.09-8.76-2.17-10.4s1.53-4.89,1.53-4.89c-1.15,2.13-6.19,5.3-9.28,2.76a3.26,3.26,0,0,1-.86-4.3,6.07,6.07,0,0,1,2.86-2.53c-1.66,1.25,0,4.28,2,4.15a19.63,19.63,0,0,0,5.92-2.07,19.69,19.69,0,0,0,5.93,2.07c2,.14,3.65-2.89,2-4.15a6,6,0,0,1,2.86,2.53,3.26,3.26,0,0,1-.86,4.3c-3.09,2.55-8.12-.63-9.27-2.76,0,0-.4,3.25,1.53,4.89S151.36,153.59,148.17,156.18Z"/><path class="cls-1" d="M129.76,142.38c-.29,2.51,4.72,7.16,14.53,3.55,0,0-11.16,7.36-15.46,2.54,0,0-1.1-1.94.61-2.52a2.1,2.1,0,0,1-.8-2.86s-.59-2.58,2-2.58c1.29,0,1,2-.12,1.61C130.32,142.05,129.85,141.55,129.76,142.38Z"/><path class="cls-1" d="M166.58,142.38c.29,2.51-4.72,7.16-14.53,3.55,0,0,11.16,7.36,15.46,2.54,0,0,1.1-1.94-.61-2.52a2.1,2.1,0,0,0,.8-2.86s.59-2.58-2-2.58c-1.29,0-1,2,.12,1.61C166,142.05,166.49,141.55,166.58,142.38Z"/><path class="cls-1" d="M137.39,131.89a1,1,0,1,1-1-1A1,1,0,0,1,137.39,131.89Z"/><path class="cls-1" d="M159,131.89a1,1,0,1,0,1-1A1,1,0,0,0,159,131.89Z"/><path class="cls-1" d="M140.26,132.59a.7.7,0,1,1-.7-.7A.7.7,0,0,1,140.26,132.59Z"/><path class="cls-1" d="M156.08,132.59a.7.7,0,1,0,.7-.7A.7.7,0,0,0,156.08,132.59Z"/><path class="cls-1" d="M142.83,131.85a.57.57,0,0,1-.58.57.58.58,0,1,1,0-1.15A.59.59,0,0,1,142.83,131.85Z"/><path class="cls-1" d="M153.51,131.85a.57.57,0,0,0,.57.57.58.58,0,1,0,0-1.15A.59.59,0,0,0,153.51,131.85Z"/><path class="cls-1" d="M144.43,130.51a.4.4,0,1,1-.4-.4A.4.4,0,0,1,144.43,130.51Z"/><path class="cls-1" d="M151.91,130.51a.4.4,0,1,0,.4-.4A.4.4,0,0,0,151.91,130.51Z"/><path class="cls-1" d="M145.71,129.47a.36.36,0,0,1-.49,0,.34.34,0,0,1,0-.49.36.36,0,0,1,.49,0A.34.34,0,0,1,145.71,129.47Z"/><path class="cls-1" d="M150.63,129.47a.36.36,0,0,0,.49,0,.34.34,0,0,0,0-.49.35.35,0,0,0-.49.49Z"/><path class="cls-1" d="M134,139.17s-1.24,5.13,6.12,5.76c0,0-6.76.88-7.69-2.14A2.71,2.71,0,0,1,134,139.17Z"/><path class="cls-1" d="M162.33,139.17s1.24,5.13-6.12,5.76c0,0,6.76.88,7.69-2.14A2.71,2.71,0,0,0,162.33,139.17Z"/></g></g></svg>