<svg width="1900" height="142" viewBox="0 0 1900 142" fill="none" xmlns="http://www.w3.org/2000/svg">
<path d="M1900 0H0V48.2919H1900V0Z" fill="white"/>
<path d="M1260.62 32.4539H1145.41C1138.64 32.4539 1132.23 29.3412 1127.88 23.9398L1115.47 8.55968C1111.13 3.15831 1104.72 0.0456543 1097.94 0.0456543H950.046H949.725H801.829C795.054 0.0456543 788.646 3.15831 784.297 8.55968L771.892 23.9398C767.544 29.3412 761.135 32.4539 754.361 32.4539H639.147H0V109.584H639.147H697.738C704.512 109.584 710.921 112.696 715.269 118.098L727.674 133.478C732.023 138.879 738.431 141.992 745.206 141.992H977.785H999.299H1154.57C1161.34 141.992 1167.75 138.879 1172.1 133.478L1184.5 118.098C1188.85 112.696 1195.26 109.584 1202.03 109.584H1260.62H1900V32.4539H1260.62Z" fill="url(#paint0_linear_11_45)"/>
<defs>
<linearGradient id="paint0_linear_11_45" x1="950.016" y1="37.5999" x2="950.016" y2="94.0427" gradientUnits="userSpaceOnUse">
<stop offset="0.00837989" stop-color="#2D2B2B"/>
<stop offset="0.5999" stop-color="#292627"/>
<stop offset="1" stop-color="#231F20"/>
</linearGradient>
</defs>
</svg>
