<svg width="2609" height="34" viewBox="0 0 2609 34" fill="none" xmlns="http://www.w3.org/2000/svg">
<path d="M2576.26 8.50889C2570.34 1.31174 2562.29 -0.154349 2559 0.0122522V31H2604C2596.11 31 2590.56 26.3352 2588.59 24.0028C2586.94 21.837 2582.18 15.706 2576.26 8.50889Z" fill="white"/>
<path d="M2604 31C2596.4 31 2590.5 26.3333 2588.5 24V34H2604V31Z" fill="white"/>
<rect width="2560" height="31" fill="white"/>
<rect width="2595" height="5" transform="matrix(-1 0 0 1 2595 29)" fill="white"/>
<rect width="5" height="4" transform="matrix(-1 0 0 1 2597 30)" fill="white"/>
<rect width="8" height="3" transform="matrix(-1 0 0 1 2604 31)" fill="white"/>
</svg>
