<svg xmlns="http://www.w3.org/2000/svg" viewBox="0 0 74.76 75.98"><defs><style>.cls-1{fill:#ce963e;}</style></defs><g id="Layer_2" data-name="Layer 2"><g id="Layer_1-2" data-name="Layer 1"><path class="cls-1" d="M61.46,75.91a4.65,4.65,0,0,1-4.72-4.57V24.43a12.89,12.89,0,0,1-8.59-12,12.88,12.88,0,0,1,9-12.16L57.93,0V11.2H65V0l.78.26a12.89,12.89,0,0,1,9,12.16,12.89,12.89,0,0,1-8.59,12V71.34A4.65,4.65,0,0,1,61.46,75.91ZM56.74,1.67a11.73,11.73,0,0,0-7.41,10.75,11.71,11.71,0,0,0,8.19,11l.41.14V71.34a3.53,3.53,0,0,0,7.05,0V23.59l.41-.14a11.71,11.71,0,0,0,8.19-11A11.73,11.73,0,0,0,66.17,1.67V12.38H56.74Zm4.72,71.69a2.28,2.28,0,1,1,2.34-2.28A2.31,2.31,0,0,1,61.46,73.36Zm0-3.37a1.1,1.1,0,1,0,1.15,1.09A1.13,1.13,0,0,0,61.46,70Z"/><path class="cls-1" d="M61.46,75.61A4.35,4.35,0,0,1,57,71.34V24.22a12.58,12.58,0,0,1-8.59-11.8A12.59,12.59,0,0,1,57.24.54l.39-.13V11.49h7.65V.41l.39.13a12.59,12.59,0,0,1,8.79,11.88,12.58,12.58,0,0,1-8.59,11.8V71.34A4.34,4.34,0,0,1,61.46,75.61ZM57,1.23a12,12,0,0,0-8,11.19,12,12,0,0,0,8.4,11.32l.2.06V71.34a3.83,3.83,0,0,0,7.65,0V23.8l.2-.06a12,12,0,0,0,8.4-11.32,12,12,0,0,0-8-11.19V12.08H57Zm4.42,71.83a2,2,0,1,1,2-2A2,2,0,0,1,61.46,73.06Zm0-3.37a1.4,1.4,0,1,0,1.45,1.39A1.42,1.42,0,0,0,61.46,69.69Z"/><path class="cls-1" d="M9.22,76a2.3,2.3,0,0,1-2.58-2.46c0-4.9,0-9.8,0-14.71A154.82,154.82,0,0,1,7.36,37H7.09S7,37,7,37.21A2.13,2.13,0,0,1,4.69,39c-.24,0-.43,0-.59,0H3.55l-.36,0A2.87,2.87,0,0,1,0,36c0-2.12,0-4.28,0-6.43a3,3,0,0,1,3.15-3c.52,0,1,0,1.33,0a2.63,2.63,0,0,1,1.93.51c.6.6.58,1.58.55,3.37,0,.19,0,.77.11.89s.13.09.48.09h.28c.39,0,.39,0,.41-.5l0-.35a154.2,154.2,0,0,1,3.82-18.41c1-3.89,3-5.34,7.1-5.34h28.3l-.35.82a12.95,12.95,0,0,0,0,10.33l.38.86-1.54-.05-3.18-.08L18,19l-.66,0c-.54,0-1.09.06-1.64.07-.29,0-.29,0-.33.19-1,4.53-1.86,9.66-2.7,16.15l4.3,0c7.13-.25,13.68-.37,20-.37,5.55,0,10.95.1,16.06.29.54,0,1.09.07,1.63.11l.54,0V69.81h-.59l-18.85,0-19,0h0a1.23,1.23,0,0,0-.27,0,1.77,1.77,0,0,0,0,.24c.05,1.08,0,2.18,0,3.23A2.39,2.39,0,0,1,13.85,76H9.22ZM7.64,35.81a1.16,1.16,0,0,1,.72.2l.28.21,0,.35a152.29,152.29,0,0,0-.75,22.21c0,4.93,0,9.83,0,14.73,0,.89.42,1.27,1.4,1.28h4.61c1.09,0,1.46-.39,1.48-1.5s0-2.11,0-3.16A1.45,1.45,0,0,1,15.62,69a1.58,1.58,0,0,1,1.12-.37H54v-32c-.34,0-.68,0-1-.06-5.09-.2-10.47-.3-16-.3-6.32,0-12.86.12-20,.38H12.67a1.21,1.21,0,0,1-.92-.42,1.18,1.18,0,0,1-.28-.93c.84-6.52,1.7-11.68,2.71-16.25A1.35,1.35,0,0,1,15.66,18c.52,0,1.05,0,1.58-.07l.69,0,25-.36,2.91.08a14,14,0,0,1-.86-4.85A14.15,14.15,0,0,1,45.76,8H19.23c-3.64,0-5,1-6,4.47A149.88,149.88,0,0,0,9.48,30.7a1.55,1.55,0,0,0,0,.22A1.48,1.48,0,0,1,8,32.57l-.38,0a1.79,1.79,0,0,1-1.29-.42,2.22,2.22,0,0,1-.48-1.77,5.76,5.76,0,0,0-.2-2.5,2.08,2.08,0,0,0-1.09-.18c-.35,0-.79,0-1.3,0a1.8,1.8,0,0,0-2,1.84c-.06,2.13-.06,4.27,0,6.37,0,1.18.67,1.75,2,1.79h.38l.49,0a4.79,4.79,0,0,0,.51,0c.92-.06,1.11-.28,1.21-.78q.22-1.2,1.29-1.2h.51l0,.3Z"/><path class="cls-1" d="M12,75.68H9.22a2,2,0,0,1-2.28-2.16q0-7.35,0-14.71a153.63,153.63,0,0,1,.72-22.1H7.62a1.63,1.63,0,0,1-.31,0c-.4,0-.53,0-.62.47-.23,1.23-1.15,1.45-2,1.51a10.09,10.09,0,0,1-1.11,0l-.36,0c-1.8,0-2.82-1-2.86-2.65-.06-2.11-.05-4.27,0-6.42A2.66,2.66,0,0,1,3.2,26.88c1.69-.07,2.54-.1,3,.39s.49,1.44.46,3.15c0,.55,0,.93.21,1.11s.48.2,1,.16.66-.32.68-.79a3.16,3.16,0,0,1,0-.32,151.18,151.18,0,0,1,3.81-18.37c1-3.78,2.8-5.12,6.81-5.12H47.08l-.18.41A13.22,13.22,0,0,0,47,18.06l.19.42-1.07,0-3.18-.08L18,18.72l-.66,0c-.55,0-1.09.06-1.63.07s-.55.09-.62.43c-1,4.54-1.86,9.68-2.71,16.17a.31.31,0,0,0,.08.24.33.33,0,0,0,.26.11h4.26c13.36-.47,25.16-.5,36.06-.08.54,0,1.07.06,1.61.11l.27,0V69.51h-.29c-11.88,0-24.25,0-37.83,0-.33,0-.45.06-.5.11s-.08.21-.07.46c0,1.07,0,2.16,0,3.22a2.11,2.11,0,0,1-2.36,2.37ZM7.64,36.11a.94.94,0,0,1,.54.14l.14.1,0,.18a152.3,152.3,0,0,0-.75,22.26q0,7.38,0,14.72c0,1.06.56,1.57,1.7,1.58H10.5c1.11,0,2.22,0,3.33,0,1.26,0,1.76-.52,1.78-1.79,0-1.05,0-2.13,0-3.18a1.2,1.2,0,0,1,.24-.9,1.32,1.32,0,0,1,.92-.28c13.47,0,25.74,0,37.53,0V36.38c-.44,0-.88-.07-1.32-.08-10.88-.42-22.66-.4-36,.08H12.68a1,1,0,0,1-.71-.32.91.91,0,0,1-.21-.69c.85-6.51,1.71-11.67,2.71-16.23a1.06,1.06,0,0,1,1.19-.88c.53,0,1.07,0,1.6-.07l.68,0,25-.36h0l3.2.09h.14a13.83,13.83,0,0,1-.05-10.2h-27c-3.77,0-5.29,1.15-6.24,4.69a150.46,150.46,0,0,0-3.8,18.3,2.45,2.45,0,0,0,0,.27,1.18,1.18,0,0,1-1.23,1.34A1.77,1.77,0,0,1,6.5,32a2,2,0,0,1-.39-1.54c0-1.58,0-2.41-.28-2.72s-1.13-.29-2.61-.23A2.08,2.08,0,0,0,.93,29.59C.87,31.72.87,33.87.92,36c0,1.35.81,2.05,2.3,2.09h.37a7.09,7.09,0,0,0,1,0c1-.06,1.35-.32,1.48-1a1,1,0,0,1,1.25-.94h.28Z"/><path class="cls-1" d="M14.19,55.44a2.62,2.62,0,0,1-1.91-.8,2.46,2.46,0,0,1-.73-1.82l.09-4.51a2.57,2.57,0,0,1,1-2,2.69,2.69,0,0,1,1.61-.54,3,3,0,0,1,.72.1l5.5,1.49-.09.5s-.48,2.81.22,4a10.58,10.58,0,0,1,1.19,2.93l.14.67Zm.09-8.53a1.6,1.6,0,0,0-.94.31,1.44,1.44,0,0,0-.58,1.12l-.1,4.5a1.45,1.45,0,0,0,.41,1,1.57,1.57,0,0,0,1.12.47h6.35a9.44,9.44,0,0,0-.86-1.91c-.7-1.16-.57-3.18-.44-4.23L14.71,47A2,2,0,0,0,14.28,46.91Z"/><path class="cls-1" d="M21.59,55.14h-7.4a2.35,2.35,0,0,1-1.7-.71,2.17,2.17,0,0,1-.64-1.61l.09-4.5a2.26,2.26,0,0,1,.91-1.75,2.39,2.39,0,0,1,2.07-.39l5.24,1.41,0,.24s-.51,2.91.26,4.16a10,10,0,0,1,1.14,2.84Zm-7.31-8.53a1.9,1.9,0,0,0-1.12.37,1.75,1.75,0,0,0-.7,1.35l-.1,4.5a1.71,1.71,0,0,0,.5,1.24,1.84,1.84,0,0,0,1.33.56h6.75a9.73,9.73,0,0,0-1-2.37c-.74-1.21-.48-3.54-.37-4.29l-4.78-1.29A1.79,1.79,0,0,0,14.28,46.61Z"/><path class="cls-1" d="M29.84,65.07a1.83,1.83,0,0,1-1.39-.5A2.09,2.09,0,0,1,28,62.9c0-.14,0-.3,0-.45a2.05,2.05,0,0,1,.43-1.63,2,2,0,0,1,1.45-.48l6.25,0,6.74,0a1.93,1.93,0,0,1,1.45.48,2.08,2.08,0,0,1,.42,1.6,4.16,4.16,0,0,0,0,.5,2,2,0,0,1-.4,1.64,1.9,1.9,0,0,1-1.45.51H42.8c-.86,0-1.73,0-2.59,0H32.65c-.89,0-1.78,0-2.66,0Zm.07-3.61c-.47,0-.62.11-.65.14s-.12.49-.11.81a5.61,5.61,0,0,1,0,.58,1.24,1.24,0,0,0,.11.81.84.84,0,0,0,.58.15H30c.9,0,1.8,0,2.69,0H40.2c.88,0,1.76,0,2.63,0h.11a1,1,0,0,0,.63-.15c.07-.08.15-.28.1-.78,0-.2,0-.41,0-.63s0-.67-.09-.79a.88.88,0,0,0-.59-.14l-6.76,0-6.3,0v0Z"/><path class="cls-1" d="M42.93,64.77h-.12c-1.49,0-3,0-4.47,0-1.26,0-2.53,0-3.8,0-1.5,0-3,0-4.56,0a1.67,1.67,0,0,1-1.32-.39,1.85,1.85,0,0,1-.33-1.44,4.17,4.17,0,0,0,0-.5,1.84,1.84,0,0,1,.35-1.4,1.75,1.75,0,0,1,1.25-.39c3.73,0,7.74,0,13,0a1.71,1.71,0,0,1,1.23.39,1.82,1.82,0,0,1,.33,1.38,4.77,4.77,0,0,0,0,.54,1.85,1.85,0,0,1-.33,1.41A1.63,1.63,0,0,1,42.93,64.77Zm-.11-.52a1.26,1.26,0,0,0,1-.25A1.23,1.23,0,0,0,44,63a5.76,5.76,0,0,1,0-.59,1.48,1.48,0,0,0-.18-1,1.17,1.17,0,0,0-.86-.23c-5.25,0-9.26,0-13,0a1.24,1.24,0,0,0-.88.23,1.46,1.46,0,0,0-.2,1,4.82,4.82,0,0,1,0,.54c0,.55,0,.87.2,1.05a1.18,1.18,0,0,0,.92.24c1.53,0,3.08,0,4.59,0,1.26,0,2.53,0,3.79,0,1.47,0,3,0,4.48,0Z"/><path class="cls-1" d="M36.52,56.73a62.36,62.36,0,0,1-10.74-.88,3.23,3.23,0,0,1-2.62-2.12c-.17-.45-.36-.9-.55-1.34-.3-.7-.61-1.43-.85-2.17A3.12,3.12,0,0,1,22,47.34a3.37,3.37,0,0,1,2.88-1.21H47.84a3.45,3.45,0,0,1,3,1.23,3.29,3.29,0,0,1,.2,3.08c-.19.54-.41,1.08-.61,1.56l-.28.66c-1.14,2.83-2.42,3.39-5.46,3.56-.95.05-1.92.14-2.85.22-1.41.13-2.87.27-4.35.29ZM29.7,47.24H24.91a2.4,2.4,0,0,0-2,.75,2.11,2.11,0,0,0-.11,1.89c.22.69.52,1.39.81,2.07.2.47.4.92.57,1.38A2.12,2.12,0,0,0,26,54.75a61,61,0,0,0,10.52.87h.95c1.41,0,2.85-.15,4.24-.27h.1c.92-.09,1.87-.17,2.81-.23,2.68-.15,3.54-.52,4.49-2.86l.28-.67c.2-.49.41-1,.59-1.49A2.28,2.28,0,0,0,49.89,48a2.43,2.43,0,0,0-2-.77H29.7Z"/><path class="cls-1" d="M36.52,56.43a61.77,61.77,0,0,1-10.69-.88,2.94,2.94,0,0,1-2.39-1.93c-.17-.45-.37-.9-.56-1.35-.29-.69-.6-1.41-.84-2.14a2.88,2.88,0,0,1,.23-2.62,3.12,3.12,0,0,1,2.64-1.08H47.84a3.13,3.13,0,0,1,2.71,1.11,3,3,0,0,1,.17,2.81c-.18.52-.4,1-.61,1.53l-.27.67c-1.09,2.69-2.26,3.2-5.2,3.37-1,0-1.93.14-2.87.23-1.41.13-2.87.26-4.32.28ZM29.7,46.94H24.91a2.6,2.6,0,0,0-2.22.87A2.34,2.34,0,0,0,22.54,50a22.27,22.27,0,0,0,.82,2.1c.19.45.39.91.56,1.37a2.42,2.42,0,0,0,2,1.6,61.5,61.5,0,0,0,11.53.87c1.42,0,2.87-.15,4.27-.28,1-.08,1.92-.17,2.89-.23v0c2.79-.15,3.75-.57,4.75-3,.09-.23.18-.45.28-.68.2-.49.42-1,.59-1.5a2.53,2.53,0,0,0-.1-2.34,2.7,2.7,0,0,0-2.29-.9H29.7Z"/></g></g></svg>