<svg xmlns="http://www.w3.org/2000/svg" viewBox="0 0 102.35 80.57"><defs><style>.cls-1{fill:#ce963e;}</style></defs><g id="Layer_2" data-name="Layer 2"><g id="Layer_1-2" data-name="Layer 1"><path class="cls-1" d="M8.1,48.86V30.68a.71.71,0,0,0-1.42,0V42.82a3.34,3.34,0,1,1-6.68,0V32A10.11,10.11,0,0,1,10.09,21.94H29A10.1,10.1,0,0,1,39.06,32V42.82a3.34,3.34,0,1,1-6.68,0V30.68a.71.71,0,0,0-1.41,0V48.86Zm21.58-1.28V30.68a2,2,0,0,1,4,0V42.82a2.06,2.06,0,1,0,4.11,0V32a8.81,8.81,0,0,0-8.8-8.8H10.09A8.81,8.81,0,0,0,1.29,32V42.82a2.06,2.06,0,1,0,4.11,0V30.68a2,2,0,0,1,4,0v16.9Z"/><path class="cls-1" d="M30.67,48.57H8.39V30.68a1,1,0,0,0-2,0V42.82a3,3,0,1,1-6.09,0V32a9.8,9.8,0,0,1,9.79-9.79H29A9.8,9.8,0,0,1,38.76,32V42.82a3,3,0,1,1-6.08,0V30.68a1,1,0,0,0-2,0ZM9.08,47.88H30V30.68a1.7,1.7,0,0,1,3.39,0V42.82a2.36,2.36,0,1,0,4.71,0V32a9.11,9.11,0,0,0-9.1-9.1H10.09A9.11,9.11,0,0,0,1,32V42.82a2.36,2.36,0,1,0,4.71,0V30.68a1.69,1.69,0,0,1,3.38,0Z"/><path class="cls-1" d="M10.09,6.68a3.34,3.34,0,0,1,0-6.68H29a3.34,3.34,0,0,1,0,6.68Zm0-5.39a2.06,2.06,0,1,0,0,4.11H29a2.06,2.06,0,0,0,0-4.11Z"/><path class="cls-1" d="M29,6.38H10.09a3,3,0,1,1,0-6.08H29a3,3,0,1,1,0,6.08ZM10.09,1a2.36,2.36,0,1,0,0,4.71H29A2.36,2.36,0,0,0,29,1Z"/><path class="cls-1" d="M15.65,10.78a6.37,6.37,0,0,1-5.42-3l-.63-1H29.46l-.62,1a6.37,6.37,0,0,1-5.43,3Zm-3.53-2.7A5.06,5.06,0,0,0,15.65,9.5h7.76a5.06,5.06,0,0,0,3.53-1.42Z"/><path class="cls-1" d="M23.41,10.48H15.65a6.06,6.06,0,0,1-5.17-2.86l-.33-.52H28.92l-.34.52A6,6,0,0,1,23.41,10.48Zm-12-2.69a5.41,5.41,0,0,0,4.21,2h7.76a5.39,5.39,0,0,0,4.21-2Z"/><path class="cls-1" d="M19.53,20.53A10.1,10.1,0,0,1,9.44,10.44V8.26l1.07.94a7.8,7.8,0,0,0,5.14,2h7.76a7.8,7.8,0,0,0,5.14-2l1.07-.94v2.18A10.1,10.1,0,0,1,19.53,20.53ZM10.75,11a8.8,8.8,0,0,0,17.57,0,9,9,0,0,1-4.91,1.46H15.65A8.9,8.9,0,0,1,10.75,11Z"/><path class="cls-1" d="M19.53,20.23a9.8,9.8,0,0,1-9.79-9.79V8.92l.57.5a8.12,8.12,0,0,0,5.34,2h7.76a8.1,8.1,0,0,0,5.34-2l.57-.5v1.52A9.8,9.8,0,0,1,19.53,20.23Zm-9.1-9.83v0a9.1,9.1,0,1,0,18.2,0v0a8.73,8.73,0,0,1-5.22,1.74H15.65A8.75,8.75,0,0,1,10.43,10.4Z"/><path class="cls-1" d="M25.6,80.57a5.37,5.37,0,0,1-5.36-5.37V57H18.83V75.2a5.37,5.37,0,1,1-10.73,0V50.28H31V75.2A5.38,5.38,0,0,1,25.6,80.57Zm-4.08-24.9V75.2a4.08,4.08,0,1,0,8.16,0V51.56H9.38V75.2a4.08,4.08,0,1,0,8.16,0V55.67Z"/><path class="cls-1" d="M25.6,80.27a5.07,5.07,0,0,1-5.06-5.07V56.66h-2V75.2a5.07,5.07,0,0,1-10.14,0V50.57H30.67V75.2A5.07,5.07,0,0,1,25.6,80.27ZM17.84,56h3.39V75.2a4.38,4.38,0,1,0,8.75,0V51.26H9.08V75.2a4.38,4.38,0,0,0,8.76,0Z"/><path class="cls-1" d="M18.51,25l-2.36-2.36h6.77L20.56,25Zm1.66-1,.47-.47H18.42l.48.47Z"/><path class="cls-1" d="M20.43,24.73h-1.8L16.87,23h5.32Zm-1.66-.35h1.52l1.07-1.07H17.7Z"/><path class="cls-1" d="M16.88,37.56,19,24.08h1.17l2.06,13.48-2.65,2.36Zm2.65,1.1,1.64-1.47L19.53,26.5,17.89,37.19Z"/><path class="cls-1" d="M19.53,39.52,17.2,37.44l2-13.06h.65l2,13.06Zm-2-2.21,2,1.75,2-1.75L19.56,24.73H19.5Z"/><path class="cls-1" d="M41.35,79.07a2.25,2.25,0,0,1-2.49-2.45q0-7.32,0-14.63a160.25,160.25,0,0,1,.67-21.69h-.23s-.06.05-.09.23l0,.29L38,40.61l.06-.3q.21-1.2,1.26-1.2h.48a1.16,1.16,0,0,1,.74.21l.27.2,0,.34A156.93,156.93,0,0,0,40.07,62q0,7.35,0,14.65c0,.88.39,1.26,1.32,1.26h4.41c1,0,1.38-.38,1.4-1.49s0-2.11,0-3.14a1.25,1.25,0,0,1,1.42-1.49l17.67,0h4.54l15.46,0a1.57,1.57,0,0,1,1.11.37,1.49,1.49,0,0,1,.32,1.12c-.05,1,0,2.08,0,3.11s.36,1.5,1.4,1.52h4.41c.93,0,1.32-.38,1.32-1.26q0-7.31,0-14.62a156.23,156.23,0,0,0-.71-22.11l0-.35.27-.2a1.11,1.11,0,0,1,.69-.21h.54c.69,0,1.11.4,1.25,1.2.09.5.27.71,1.14.77l.48,0,.47,0h.37c1.27,0,1.87-.6,1.9-1.78.05-2.1.05-4.23,0-6.33a1.74,1.74,0,0,0-1.9-1.83L98,31.1c-.37,0-.87,0-1,.16a6.11,6.11,0,0,0-.19,2.5,2.22,2.22,0,0,1-.48,1.77,1.76,1.76,0,0,1-1.25.4h-.36a1.46,1.46,0,0,1-1.45-1.63c0-.09,0-.17,0-.24A152.19,152.19,0,0,0,89.57,15.9c-.88-3.4-2.21-4.44-5.68-4.44H51c-3.47,0-4.8,1-5.68,4.44a152.59,152.59,0,0,0-3.64,18.15,1.69,1.69,0,0,0,0,.23,1.48,1.48,0,0,1-1.46,1.64H39.8a1.76,1.76,0,0,1-1.25-.4,2.22,2.22,0,0,1-.48-1.77v-.3l1.19,0v.3c0,.19,0,.77.11.88s.1.09.43.09h.27c.35,0,.35,0,.37-.5,0-.12,0-.24,0-.35A156.92,156.92,0,0,1,44.12,15.6c1-3.88,2.86-5.32,6.83-5.32H83.89c4,0,5.82,1.44,6.83,5.32a156.25,156.25,0,0,1,3.66,18.3,3.31,3.31,0,0,1,0,.34c0,.47,0,.47.37.5h.27c.33,0,.42-.07.43-.08s.11-.7.11-.89c0-1.79,0-2.78.55-3.37a2.5,2.5,0,0,1,1.85-.5c.35,0,.77,0,1.26,0a2.92,2.92,0,0,1,3.06,3c0,2.12,0,4.27,0,6.39a2.81,2.81,0,0,1-3,2.93h-.32a4.79,4.79,0,0,1-.55,0c-.15,0-.34,0-.56,0a2.09,2.09,0,0,1-2.22-1.74.84.84,0,0,0-.07-.25.69.69,0,0,1-.2,0h0A162.39,162.39,0,0,1,96,62l0,14.61a2.26,2.26,0,0,1-2.5,2.45h-2.7l-1.74,0a2.37,2.37,0,0,1-2.57-2.65c0-1.07,0-2.16,0-3.22a1.67,1.67,0,0,0,0-.23H48.35a1.8,1.8,0,0,0,0,.24c0,1.08,0,2.21,0,3.21a2.37,2.37,0,0,1-2.57,2.65l-1.72,0Z"/><path class="cls-1" d="M90.79,78.78l-1.73,0c-1.53,0-2.25-.77-2.28-2.35,0-1.07,0-2.14,0-3.2,0-.25,0-.41-.07-.47s-.15-.09-.46-.09H48.58c-.31,0-.42,0-.46.09s-.08.22-.07.47c0,1.07,0,2.15,0,3.2,0,1.58-.75,2.33-2.27,2.35-1.07,0-2.14,0-3.21,0H41.35a2,2,0,0,1-2.2-2.15l0-14.63a159.42,159.42,0,0,1,.7-22h-.06a1.41,1.41,0,0,1-.29,0c-.39,0-.5,0-.59.47l-.58-.11c.18-1,.8-1,1.21-.94h.24a.84.84,0,0,1,.56.15l.14.1,0,.16A157.85,157.85,0,0,0,39.77,62c0,4.89,0,9.77,0,14.64,0,1,.53,1.56,1.62,1.56h1.23c1.06,0,2.12,0,3.19,0s1.67-.52,1.69-1.78c0-1,0-2.12,0-3.17a1.19,1.19,0,0,1,.24-.89,1.16,1.16,0,0,1,.88-.28h0l18.83,0,18.84,0a1.26,1.26,0,0,1,.88.28,1.19,1.19,0,0,1,.24.89c0,1,0,2.11,0,3.14,0,1.29.5,1.79,1.7,1.81s2.12,0,3.19,0h1.23c1.08,0,1.61-.51,1.61-1.56q0-7.31,0-14.62v-.06a153.39,153.39,0,0,0-.72-22.09l0-.17.14-.1a.83.83,0,0,1,.56-.15h.24c.41,0,1-.08,1.21.94.13.7.48,1,1.41,1a6.42,6.42,0,0,0,1,0h.36a2,2,0,0,0,2.19-2.07c0-2.11,0-4.24,0-6.35a2,2,0,0,0-2.19-2.11c-1.41-.06-2.18-.09-2.48.21s-.31,1.14-.28,2.71a2,2,0,0,1-.39,1.55,1.72,1.72,0,0,1-1.38.31,1.16,1.16,0,0,1-1.18-1.34c0-.09,0-.18,0-.27a154.9,154.9,0,0,0-3.65-18.19c-.91-3.53-2.37-4.66-6-4.66H51c-3.6,0-5.06,1.13-6,4.66A155.72,155.72,0,0,0,41.33,34a2.44,2.44,0,0,0,0,.27,1.17,1.17,0,0,1-1.19,1.34,1.73,1.73,0,0,1-1.38-.31,2,2,0,0,1-.39-1.55H39c0,.56,0,.94.2,1.11a1.26,1.26,0,0,0,.93.15c.62-.05.63-.31.65-.77,0-.11,0-.22,0-.32a156.62,156.62,0,0,1,3.66-18.27c1-3.76,2.69-5.09,6.54-5.09H83.89c3.85,0,5.56,1.33,6.54,5.09a156.21,156.21,0,0,1,3.66,18.27c0,.1,0,.21,0,.32,0,.46,0,.72.65.77a1.27,1.27,0,0,0,.93-.15c.18-.17.21-.55.2-1.11,0-1.71,0-2.65.46-3.14s1.3-.44,2.91-.38A2.61,2.61,0,0,1,102,32.93c0,2.12,0,4.27,0,6.38A2.51,2.51,0,0,1,99.26,42l-.35,0a7.64,7.64,0,0,1-1.06,0c-.84-.05-1.73-.27-1.95-1.49-.09-.51-.2-.5-.59-.47A1.41,1.41,0,0,1,95,40H95a159.22,159.22,0,0,1,.7,22h0l0,14.61a2,2,0,0,1-2.2,2.15h-2.7Z"/><path class="cls-1" d="M46.72,58.69A2.6,2.6,0,0,1,44.12,56l.09-4.47a2.58,2.58,0,0,1,1-2A2.55,2.55,0,0,1,46.8,49a2.83,2.83,0,0,1,.71.1l5.32,1.49-.09.53c-.16,1-.33,3,.2,3.92A10.31,10.31,0,0,1,54.08,58l.14.71Zm.08-8.48a1.32,1.32,0,0,0-.83.28,1.37,1.37,0,0,0-.57,1.1l-.1,4.48a1.41,1.41,0,0,0,.41,1,1.38,1.38,0,0,0,1,.43h6a9.75,9.75,0,0,0-.81-1.85c-.67-1.15-.55-3.16-.43-4.19l-4.3-1.21A1.31,1.31,0,0,0,46.8,50.21Z"/><path class="cls-1" d="M53.86,58.39H46.72a2.24,2.24,0,0,1-1.64-.69,2.26,2.26,0,0,1-.66-1.65l.09-4.48a2.3,2.3,0,0,1,2.92-2.16l5.06,1.42-.05.26S52,54,52.68,55.21A10,10,0,0,1,53.79,58ZM46.8,49.91a1.64,1.64,0,0,0-1,.34,1.67,1.67,0,0,0-.69,1.33L45,56.06a1.7,1.7,0,0,0,.48,1.23,1.73,1.73,0,0,0,1.23.52h6.41a10.19,10.19,0,0,0-1-2.3c-.7-1.2-.46-3.48-.36-4.26L47.27,50A1.84,1.84,0,0,0,46.8,49.91Z"/><path class="cls-1" d="M73.57,68.26c-.83,0-1.67,0-2.5,0h-7.3c-.83,0-1.67,0-2.5,0h-.12a1.81,1.81,0,0,1-1.39-.49,2.14,2.14,0,0,1-.43-1.7c0-.15,0-.31,0-.47A2.14,2.14,0,0,1,59.77,64a2,2,0,0,1,1.42-.47l6.23,0,6.21,0a2,2,0,0,1,1.44.47,2.14,2.14,0,0,1,.44,1.64,3.68,3.68,0,0,0,0,.47,2.14,2.14,0,0,1-.43,1.7,1.8,1.8,0,0,1-1.38.49ZM71,67c.85,0,1.72,0,2.57,0h.12c.33,0,.45-.08.5-.13s.14-.26.1-.79c0-.19,0-.39,0-.58s0-.68-.1-.79-.15-.12-.56-.12l-6.24,0-6.22,0c-.43,0-.55.09-.58.12s-.11.47-.1.79a5.61,5.61,0,0,1,0,.58c0,.53,0,.72.1.79s.16.13.51.13h.1c.86,0,1.73,0,2.59,0H71Z"/><path class="cls-1" d="M73.7,68h-.12c-1.45,0-2.93,0-4.37,0H65.63c-1.44,0-2.92,0-4.37,0A1.61,1.61,0,0,1,60,67.57a1.89,1.89,0,0,1-.35-1.48,4,4,0,0,0,0-.49A2,2,0,0,1,60,64.17a1.63,1.63,0,0,1,1.22-.38H73.63a1.69,1.69,0,0,1,1.22.38,1.87,1.87,0,0,1,.36,1.43,4,4,0,0,0,0,.49,1.88,1.88,0,0,1-.34,1.48A1.57,1.57,0,0,1,73.7,68ZM71,67.34c.85,0,1.71,0,2.56,0h0a1.06,1.06,0,0,0,.84-.21c.17-.17.23-.49.19-1a4.82,4.82,0,0,1,0-.54c0-.42,0-.81-.18-1a1.1,1.1,0,0,0-.78-.21h0c-2.08,0-4.16,0-6.22,0s-4.14,0-6.22,0h0a1.1,1.1,0,0,0-.78.21,1.51,1.51,0,0,0-.18,1,4.82,4.82,0,0,1,0,.54c0,.54,0,.86.19,1a1.06,1.06,0,0,0,.84.21c1.46-.05,2.95,0,4.39,0H71Z"/><path class="cls-1" d="M67.42,60a56.07,56.07,0,0,1-10.2-.88A3.18,3.18,0,0,1,54.66,57c-.16-.45-.34-.89-.53-1.33-.28-.7-.58-1.42-.81-2.16a3.21,3.21,0,0,1,.29-2.93,3.29,3.29,0,0,1,2.79-1.18h22a3.29,3.29,0,0,1,2.79,1.18,3.21,3.21,0,0,1,.29,2.93c-.23.74-.53,1.46-.81,2.16-.2.47-.37.89-.53,1.33a3.17,3.17,0,0,1-2.56,2.13,56.07,56.07,0,0,1-10.2.88ZM61,50.53H56.4a2.15,2.15,0,0,0-1.83.7,2.07,2.07,0,0,0-.12,1.87c.22.7.5,1.4.78,2.07.19.45.37.91.54,1.37a2,2,0,0,0,1.66,1.38,58.45,58.45,0,0,0,20,0,2,2,0,0,0,1.66-1.38c.17-.46.35-.92.54-1.37.28-.68.57-1.37.78-2.07a2.07,2.07,0,0,0-.12-1.87,2.15,2.15,0,0,0-1.83-.7H61Z"/><path class="cls-1" d="M67.42,59.67a56.36,56.36,0,0,1-10.15-.87,2.91,2.91,0,0,1-2.33-1.95c-.16-.45-.35-.89-.53-1.33-.28-.7-.58-1.41-.81-2.14a2.92,2.92,0,0,1,.26-2.67,3,3,0,0,1,2.54-1.05h22A3,3,0,0,1,81,50.71a3,3,0,0,1,.25,2.67h0c-.23.73-.52,1.44-.81,2.13-.18.45-.37.89-.53,1.34a2.91,2.91,0,0,1-2.33,1.95A56.36,56.36,0,0,1,67.42,59.67ZM61,50.23H56.4a2.46,2.46,0,0,0-2.07.82,2.37,2.37,0,0,0-.17,2.14c.22.71.51,1.41.79,2.09.19.45.37.9.54,1.36a2.27,2.27,0,0,0,1.89,1.57,56.11,56.11,0,0,0,10,.87,56,56,0,0,0,10-.87,2.27,2.27,0,0,0,1.89-1.57c.17-.46.35-.91.54-1.36.28-.68.57-1.38.79-2.09h0a2.37,2.37,0,0,0-.17-2.14,2.44,2.44,0,0,0-2.07-.82c-2.6,0-5.19,0-7.79,0H61Z"/><path class="cls-1" d="M80.62,58.69l.14-.71a10.31,10.31,0,0,1,1.14-2.92c.53-.91.37-3,.2-3.92L82,50.61l5.32-1.49A2.83,2.83,0,0,1,88,49a2.6,2.6,0,0,1,2.59,2.55L90.72,56a2.6,2.6,0,0,1-2.6,2.65Zm7.5-1.18a1.38,1.38,0,0,0,1-.43,1.41,1.41,0,0,0,.41-1l-.1-4.48a1.35,1.35,0,0,0-.57-1.1,1.32,1.32,0,0,0-.83-.28,1.31,1.31,0,0,0-.39,0l-4.3,1.21c.12,1,.24,3-.43,4.19a9.75,9.75,0,0,0-.81,1.85Z"/><path class="cls-1" d="M88.12,58.39H81l.07-.35a10.39,10.39,0,0,1,1.11-2.83c.72-1.24.24-4.1.24-4.12l-.05-.26,5.06-1.42a2.3,2.3,0,0,1,2.92,2.16l.09,4.48a2.26,2.26,0,0,1-.66,1.65A2.24,2.24,0,0,1,88.12,58.39Zm-6.41-.58h6.41a1.73,1.73,0,0,0,1.23-.52,1.7,1.7,0,0,0,.48-1.23l-.09-4.48a1.67,1.67,0,0,0-.69-1.33A1.71,1.71,0,0,0,87.57,50L83,51.25c.1.78.34,3.06-.36,4.26A10.19,10.19,0,0,0,81.71,57.81Z"/><path class="cls-1" d="M46.52,40a2.63,2.63,0,0,1-2-.94,2.66,2.66,0,0,1-.59-2.17l2.33-13.25a2.65,2.65,0,0,1,2.61-2.2H86.2a2.65,2.65,0,0,1,2.62,2.23L91,36.92a2.6,2.6,0,0,1-.6,2.14,2.65,2.65,0,0,1-2,.93Zm2.32-17.37a1.48,1.48,0,0,0-1.45,1.21L45.07,37.09a1.49,1.49,0,0,0,.32,1.2,1.48,1.48,0,0,0,1.13.52H88.35a1.47,1.47,0,0,0,1.12-.52,1.45,1.45,0,0,0,.33-1.18L87.65,23.85a1.46,1.46,0,0,0-1.45-1.23Z"/><path class="cls-1" d="M88.35,39.7H46.52a2.34,2.34,0,0,1-1.8-.84,2.37,2.37,0,0,1-.52-1.93l2.32-13.25a2.36,2.36,0,0,1,2.32-1.95H86.2a2.34,2.34,0,0,1,2.32,2L90.68,37a2.36,2.36,0,0,1-2.33,2.74ZM48.84,22.32a1.76,1.76,0,0,0-1.74,1.46L44.78,37a1.76,1.76,0,0,0,1.74,2.07H88.35a1.79,1.79,0,0,0,1.35-.62,1.77,1.77,0,0,0,.4-1.43L87.94,23.8a1.75,1.75,0,0,0-1.74-1.48Z"/></g></g></svg>