<svg xmlns="http://www.w3.org/2000/svg" viewBox="0 0 88.94 87.98"><defs><style>.cls-1{fill:#ce963e;}</style></defs><g id="Layer_2" data-name="Layer 2"><g id="Layer_1-2" data-name="Layer 1"><path class="cls-1" d="M50.41,25.23a4,4,0,1,0,4-4A4,4,0,0,0,50.41,25.23Zm4.78,0a.75.75,0,1,1-.74-.75A.74.74,0,0,1,55.19,25.23Z"/><path class="cls-1" d="M54.87,33.49l-.44,0h-.22q-.37,0-.72-.09l-19-2.43a5.73,5.73,0,0,1-.06-11.42h.06l18.76-2.39A7.12,7.12,0,0,1,54.32,17l.26,0h.29a8.27,8.27,0,1,1,0,16.53Zm-.48-1h.1l.38,0a7.3,7.3,0,1,0,0-14.59h-.22l-.28,0a6.56,6.56,0,0,0-1,.12L34.56,20.49a4.75,4.75,0,0,0,0,9.48l19.06,2.44c.23,0,.43.06.65.08Z"/><path class="cls-1" d="M37.22,31.15l-6.51,6.78a2.41,2.41,0,0,1-3.42,0h0a2.41,2.41,0,0,1,0-3.42l4.94-5"/><path class="cls-1" d="M23.13,40.7l-.26-.25,10-10,1.75,1.75L26.13,40.7A2.12,2.12,0,0,1,23.13,40.7Z"/><path class="cls-1" d="M77.77,7.88H34.69V0H77.77Zm-42.11-1H76.8V1H35.66Z"/><path class="cls-1" d="M55.67,13H44.83V6.91H55.67Zm-9.87-1h8.9V7.88H45.8Z"/><path class="cls-1" d="M54.3,18H46.81v-6H54.3Zm-6.51-1h5.54V13H47.79Z"/><path class="cls-1" d="M88.94,88H69.23V0h8.54V39.41L88.94,53.54ZM70.2,87H88V53.88L76.8,39.75V1H70.2Z"/><path class="cls-1" d="M78.42,57.56a2,2,0,0,1-1.92-1.5l-3-12.3A.86.86,0,0,1,75,43h0l9,11.15a2,2,0,0,1,.27,2.06,2,2,0,0,1-1.72,1.16l-4,.18ZM74.54,44l2.9,11.8a1,1,0,0,0,1,.76l4.05-.18a1,1,0,0,0,.87-.59,1,1,0,0,0-.13-1Zm-.32-.4Z"/><path class="cls-1" d="M45.55,55.08a1.9,1.9,0,0,0-2-1.95l-.83,0a1.56,1.56,0,0,0-1.2.33c-.39.38-.38,1-.36,2.19,0,.13,0,.5-.07.58s-.07,0-.28,0h-.18c-.23,0-.23,0-.24-.33a1.64,1.64,0,0,0,0-.22A101.67,101.67,0,0,0,38,43.77c-.66-2.53-1.86-3.47-4.46-3.47H12.05c-2.59,0-3.8.94-4.46,3.47s-1.25,5.17-1.71,7.66h0c0,.17,0,.34-.08.51-.07.38-.14.76-.2,1.14s-.11.67-.16,1-.07.47-.11.71-.09.62-.13.93a1.64,1.64,0,0,0,0,.22c0,.31,0,.31-.24.32H4.76a.52.52,0,0,1-.26,0h0c-.08-.08-.07-.45-.07-.58v-.19h0c0-1,0-1.64-.36-2a1.56,1.56,0,0,0-1.2-.33l-.83,0a1.9,1.9,0,0,0-2,1.95c0,1.38,0,2.78,0,4.17a1.84,1.84,0,0,0,2,1.91H3a1.41,1.41,0,0,0,1.39-1h0l0-.18h0s0-.05,0-.08,0-.07,0-.07H4.6c-.1,1-.38,4-.47,7.93h0c0,1.88,0,4,0,6.22,0,3.18,0,6.36,0,9.54a1.47,1.47,0,0,0,1.63,1.6h2.9a1.54,1.54,0,0,0,1.67-1.73c0-.65,0-1.39,0-2.1a.68.68,0,0,1,0-.15H35.23a.5.5,0,0,1,0,.15c0,.69,0,1.4,0,2.1a1.54,1.54,0,0,0,1.67,1.73h2.9a1.47,1.47,0,0,0,1.63-1.6q0-4.76,0-9.53A106.06,106.06,0,0,0,41,59.89h0l.13,0a.49.49,0,0,1,0,.16,1.39,1.39,0,0,0,1.45,1.14h.94a1.84,1.84,0,0,0,2-1.91C45.59,57.86,45.59,56.46,45.55,55.08ZM2.9,60.4H2C1.21,60.37.81,60,.8,59.23c0-1.37,0-2.76,0-4.14A1.12,1.12,0,0,1,2,53.91l.81,0a1.23,1.23,0,0,1,.66.11,3.23,3.23,0,0,1,.13,1.43h0v.52h0a1.32,1.32,0,0,0,.21.71l.1.11.12.09a1.23,1.23,0,0,0,.7.18H5l.06,0a.58.58,0,0,0,.19,0l.09,0,.17-.07.06,0,.1-.08,0,0a.47.47,0,0,0,.09-.12l0-.05a.69.69,0,0,0,0-.13h0A1.47,1.47,0,0,0,6,56a.76.76,0,0,0,0-.15A101,101,0,0,1,8.34,44c.57-2.21,1.44-2.89,3.71-2.89H33.53c2.27,0,3.14.68,3.71,2.89a100.62,100.62,0,0,1,2.38,11.85s0,.1,0,.16A1,1,0,0,0,40.58,57h.23a1.14,1.14,0,0,0,.82-.27,1.47,1.47,0,0,0,.31-1.15A3.83,3.83,0,0,1,42.07,54c.09-.1.42-.11.66-.11l.81,0a1.13,1.13,0,0,1,1.24,1.19c0,1.37,0,2.76,0,4.13,0,.77-.41,1.13-1.23,1.16h-.87c-.56,0-.68-.18-.74-.51-.09-.52-.37-.78-.82-.78h-.35a.75.75,0,0,0-.45.14l-.18.13,0,.23A101.27,101.27,0,0,1,40.64,74c0,3.18,0,6.36,0,9.54,0,.58-.26.83-.86.83H36.92c-.68,0-.91-.26-.92-1s0-1.36,0-2a1,1,0,0,0-.21-.73,1,1,0,0,0-.72-.24H10.5a1,1,0,0,0-.72.24,1,1,0,0,0-.21.73c0,.67,0,1.36,0,2.05s-.23,1-.91,1H5.79c-.61,0-.86-.25-.86-.83,0-3.18,0-6.36,0-9.56-.08-2.24-.08-4.33,0-6.2h0c0-.58,0-1.14,0-1.68A.41.41,0,0,1,5,66c0-.2,0-.39,0-.58.15-3.46.41-5.69.43-5.84h0l0-.21h0l-.18-.13-.1,0a.79.79,0,0,0-.35-.09H4.46a.74.74,0,0,0-.72.44,1.52,1.52,0,0,0-.1.34h0C3.58,60.22,3.46,60.36,2.9,60.4Z"/><path class="cls-1" d="M13.34,69.52A5,5,0,0,1,13.21,67l.06-.35-3.47-1a1.82,1.82,0,0,0-.46-.06,1.68,1.68,0,0,0-1.69,1.66l-.06,2.92a1.68,1.68,0,0,0,.48,1.22,1.71,1.71,0,0,0,1.21.51h4.9l-.09-.47A6.72,6.72,0,0,0,13.34,69.52Zm-4.55-3a.91.91,0,0,1,.55-.18,1.07,1.07,0,0,1,.25,0l2.81.79a5,5,0,0,0,.28,2.74,6,6,0,0,1,.52,1.2H9.28a1,1,0,0,1-.66-.27,1,1,0,0,1-.26-.67l.06-2.92A.93.93,0,0,1,8.79,66.53Z"/><path class="cls-1" d="M28.07,76.4a1.44,1.44,0,0,0-.29-1.08,1.3,1.3,0,0,0-.94-.31l-4.05,0-4.06,0a1.3,1.3,0,0,0-.93.31,1.4,1.4,0,0,0-.28,1.08c0,.1,0,.2,0,.3a1.43,1.43,0,0,0,.28,1.11,1.21,1.21,0,0,0,.91.32h.08c.54,0,1.09,0,1.63,0h4.76c.55,0,1.09,0,1.64,0h.08a1.2,1.2,0,0,0,.9-.32,1.4,1.4,0,0,0,.28-1.11A1.5,1.5,0,0,1,28.07,76.4Zm-5.28.94H20.43l-1.68,0h-.07c-.23,0-.31-.06-.33-.09s-.09-.17-.07-.51c0-.13,0-.25,0-.38s0-.44.06-.51.1-.08.38-.08h8.13c.27,0,.35.06.37.08s.07.3.06.51,0,.25,0,.38c0,.34,0,.47-.07.52s-.11.08-.32.08h-.08l-1.68,0H22.79Z"/><path class="cls-1" d="M32,68.48a2.07,2.07,0,0,0-.19-1.91A2.13,2.13,0,0,0,30,65.8H15.6a2.13,2.13,0,0,0-1.82.77,2.1,2.1,0,0,0-.19,1.91c.15.48.35,1,.53,1.41.12.29.24.57.35.86a2,2,0,0,0,1.66,1.4,37.13,37.13,0,0,0,6.66.57h0a37.05,37.05,0,0,0,6.66-.57,2,2,0,0,0,1.66-1.4c.11-.28.22-.56.35-.86C31.65,69.43,31.84,69,32,68.48ZM22.79,72a37.43,37.43,0,0,1-6.52-.56,1.29,1.29,0,0,1-1.08-.9c-.11-.3-.23-.6-.35-.9s-.37-.89-.51-1.34A1.37,1.37,0,0,1,14.41,67a1.42,1.42,0,0,1,1.19-.45H30a1.44,1.44,0,0,1,1.2.45,1.38,1.38,0,0,1,.07,1.23c-.14.45-.32.9-.5,1.34s-.25.6-.36.9a1.29,1.29,0,0,1-1.08.9A37.43,37.43,0,0,1,22.79,72Z"/><path class="cls-1" d="M37.25,65.91a1.67,1.67,0,0,0-1-.33,1.82,1.82,0,0,0-.46.06l-3.47,1,.06.35a4.94,4.94,0,0,1-.13,2.56,7.08,7.08,0,0,0-.75,1.9l-.09.47h4.9a1.71,1.71,0,0,0,1.21-.51A1.68,1.68,0,0,0,38,70.16l-.06-2.92A1.7,1.7,0,0,0,37.25,65.91Zm-1,5.2H32.38a6,6,0,0,1,.52-1.2,5,5,0,0,0,.28-2.74L36,66.38a1.07,1.07,0,0,1,.25,0,.91.91,0,0,1,.55.18.93.93,0,0,1,.37.72l.06,2.92a.93.93,0,0,1-.26.67A1,1,0,0,1,36.3,71.11Z"/><path class="cls-1" d="M9.15,59.69h27.3a1.73,1.73,0,0,0,1.71-2L36.75,49A1.72,1.72,0,0,0,35,47.58H10.67A1.74,1.74,0,0,0,9,49L7.45,57.66a1.73,1.73,0,0,0,1.7,2Zm1.52-11.34H35a1,1,0,0,1,1,.8l1.4,8.65a.94.94,0,0,1-.94,1.11H9.15a.94.94,0,0,1-.73-.34,1,1,0,0,1-.21-.78l1.52-8.65A1,1,0,0,1,10.67,48.35Z"/></g></g></svg>