<svg xmlns="http://www.w3.org/2000/svg" xmlns:xlink="http://www.w3.org/1999/xlink" viewBox="0 0 157.46 60.25"><defs><style>.cls-1{fill:none;}.cls-2{clip-path:url(#clip-path);}.cls-3{fill:#ce963e;}</style><clipPath id="clip-path" transform="translate(62.14 -7.83)"><rect class="cls-1" width="94.87" height="72.22"/></clipPath></defs><g id="Layer_2" data-name="Layer 2"><g id="Layer_1-2" data-name="Layer 1"><g class="cls-2"><path class="cls-3" d="M-38.83,65.34a8.06,8.06,0,0,1-8.06-8.06,8.07,8.07,0,0,1,8.06-8.06,8.07,8.07,0,0,1,8.06,8.06A8.07,8.07,0,0,1-38.83,65.34Zm0-15.56a7.52,7.52,0,0,0-7.51,7.5,7.52,7.52,0,0,0,7.51,7.51,7.52,7.52,0,0,0,7.5-7.51A7.52,7.52,0,0,0-38.83,49.78Zm0,11.67A4.17,4.17,0,0,1-43,57.28a4.17,4.17,0,0,1,4.17-4.17,4.17,4.17,0,0,1,4.17,4.17A4.17,4.17,0,0,1-38.83,61.45Zm0-7.78a3.62,3.62,0,0,0-3.62,3.61,3.63,3.63,0,0,0,3.62,3.62,3.62,3.62,0,0,0,3.61-3.62A3.61,3.61,0,0,0-38.83,53.67Z" transform="translate(62.14 -7.83)"/><path class="cls-3" d="M-49.6,59.08h-7a5.58,5.58,0,0,1-5.57-5.57V51.1h14.3l-.26.42a10.86,10.86,0,0,0-1.65,5.76,12.54,12.54,0,0,0,.1,1.48Zm-12-7.43v1.86a5,5,0,0,0,5,5h6.33c0-.42-.06-.83-.06-1.24a11.43,11.43,0,0,1,1.47-5.63Z" transform="translate(62.14 -7.83)"/><path class="cls-3" d="M-11,68.08a1.94,1.94,0,0,1-2.12-1.69A1.94,1.94,0,0,1-11,64.7H93.2a1.73,1.73,0,1,1,0,3.38Zm0-2.65a1.1,1.1,0,0,0-1.2,1,1.1,1.1,0,0,0,1.2,1H93.2a1,1,0,1,0,0-1.92Z" transform="translate(62.14 -7.83)"/><path class="cls-3" d="M93.2,68H-11a1.84,1.84,0,0,1-2-1.6,1.84,1.84,0,0,1,2-1.6H93.2a1.64,1.64,0,1,1,0,3.2ZM-11,65.34a1.2,1.2,0,0,0-1.31,1,1.2,1.2,0,0,0,1.31,1H93.2a1.07,1.07,0,1,0,0-2.09Z" transform="translate(62.14 -7.83)"/><path class="cls-3" d="M47.2,65.43a8.15,8.15,0,1,1,8.15-8.15A8.16,8.16,0,0,1,47.2,65.43Zm0-15.56a7.42,7.42,0,1,0,7.42,7.41A7.41,7.41,0,0,0,47.2,49.87Zm0,11.67a4.26,4.26,0,1,1,4.26-4.26A4.26,4.26,0,0,1,47.2,61.54Zm0-7.78a3.53,3.53,0,1,0,3.53,3.52A3.53,3.53,0,0,0,47.2,53.76Z" transform="translate(62.14 -7.83)"/><path class="cls-3" d="M47.2,65.34a8.06,8.06,0,1,1,8.06-8.06A8.07,8.07,0,0,1,47.2,65.34Zm0-15.56a7.51,7.51,0,1,0,7.5,7.5A7.51,7.51,0,0,0,47.2,49.78Zm0,11.67a4.17,4.17,0,1,1,4.17-4.17A4.17,4.17,0,0,1,47.2,61.45Zm0-7.78a3.62,3.62,0,1,0,3.61,3.61A3.61,3.61,0,0,0,47.2,53.67Z" transform="translate(62.14 -7.83)"/><path class="cls-3" d="M57.93,58.81l0-.41A10.51,10.51,0,0,0,58,57.28a10.84,10.84,0,0,0-2.41-6.8l-.06-.08,0-.35v0l2.39-1.53,11.17.11v5.36a4.88,4.88,0,0,1-4.87,4.87Zm6.3-.74a4.14,4.14,0,0,0,4.14-4.13V49.3l-10.21-.11-1.74,1.12a11.6,11.6,0,0,1,2.34,7c0,.27,0,.53,0,.79Z" transform="translate(62.14 -7.83)"/><path class="cls-3" d="M64.23,58.72H58l0-.31a10.55,10.55,0,0,0,.06-1.13,11,11,0,0,0-2.43-6.86l-.06-.08v-.29L58,48.54l11,.13v5.27A4.79,4.79,0,0,1,64.23,58.72Zm-5.59-.56h5.59a4.22,4.22,0,0,0,4.22-4.22V49.22L58.14,49.1l-1.85,1.18a11.52,11.52,0,0,1,2.38,7C58.67,57.57,58.66,57.87,58.64,58.16Z" transform="translate(62.14 -7.83)"/><path class="cls-3" d="M-28.1,58.77l0-.41a9.76,9.76,0,0,0,0-1.08A10.83,10.83,0,0,0-29.36,52l-.31-.54H38l-.3.54a10.84,10.84,0,0,0-1.36,5.25,9.77,9.77,0,0,0,.06,1.08l0,.41ZM35.67,58q0-.37,0-.75a11.55,11.55,0,0,1,1.17-5.06H-28.44a11.69,11.69,0,0,1,1.17,5.06q0,.38,0,.75Z" transform="translate(62.14 -7.83)"/><path class="cls-3" d="M36.37,58.68H-28l0-.31c0-.36,0-.73,0-1.09A10.86,10.86,0,0,0-29.29,52l-.23-.41h67.4l-.23.41a11,11,0,0,0-1.36,5.29,9.94,9.94,0,0,0,.05,1.09Zm-63.76-.56H35.76q0-.42,0-.84A11.48,11.48,0,0,1,37,52.13H-28.58a11.48,11.48,0,0,1,1.22,5.15Q-27.36,57.7-27.39,58.12Z" transform="translate(62.14 -7.83)"/><path class="cls-3" d="M53.12,48.22a10.83,10.83,0,0,0-11.88,0l-.07,0h-17l0-17.35.38,0A38.93,38.93,0,0,1,35,33.24a10.27,10.27,0,0,0,3.44.61H46.1a1.39,1.39,0,0,0,.79-.24l.65-.45a.59.59,0,0,0,.26-.49v-.61a.47.47,0,0,0-.12-.3L35.38,18.48c-.11-.08-2.78-2.17-5.46-2.17H21.43v32H-32.75l-.11-.06a10.83,10.83,0,0,0-6-1.79,10.81,10.81,0,0,0-6,1.79l-.07,0h-15.6v-.37c0-.76.25-18.65.48-26.94.24-8.52,3.06-12.6,3.18-12.77l.3-.4H22a21.79,21.79,0,0,1,16.44,7c2,2,11.87,12.12,13.4,13.76a20.69,20.69,0,0,0,4.27,3.21A30.3,30.3,0,0,1,64.35,37a10.11,10.11,0,0,1,3.05,8.5l-.05.31L57,45.68l-3.62,2.68Zm-91.95-2.5a11.56,11.56,0,0,1,6.3,1.87H20.7v-32h9.22a10.83,10.83,0,0,1,5.94,2.36L48.21,31.26a1.14,1.14,0,0,1,.32.8v.61a1.34,1.34,0,0,1-.58,1.1l-.65.44a2.13,2.13,0,0,1-1.2.37H38.48a11,11,0,0,1-3.69-.65A39.22,39.22,0,0,0,25,31.74l0,15.84H41a11.31,11.31,0,0,1,6.24-1.86,11.53,11.53,0,0,1,6.1,1.75L56.72,45l10,.1a9.45,9.45,0,0,0-2.85-7.53,29.56,29.56,0,0,0-8-5.05,20.66,20.66,0,0,1-4.5-3.38C49.87,27.55,40.79,18.27,38,15.46l-.12-.12A21,21,0,0,0,22,8.56H-56.15l-.07.1S-59,12.77-59.26,21c-.22,7.83-.44,24.28-.47,26.56h14.64A11.35,11.35,0,0,1-38.83,45.72Zm-18.26-.28V34.53h1.19A2.93,2.93,0,0,1-53,37.45v8Zm3.39-.73V37.45a2.2,2.2,0,0,0-2.2-2.19h-.45v9.45Zm48.22-13.4V15.57H16V31.31Zm20.75-.73V16.31h-20V30.58Zm-42.62.73V15.57h17.18V31.31Zm16.44-.73V16.31h-15.7V30.58Zm-42.53.73V15.57H-32V31.31Zm20.75-.73V16.31h-20V30.58Z" transform="translate(62.14 -7.83)"/><path class="cls-3" d="M53.32,48.25l-.16-.11a10.9,10.9,0,0,0-12,0l-.07,0H24.3l0-17.17.29,0A38.72,38.72,0,0,1,35,33.32a10.16,10.16,0,0,0,3.47.62H46.1a1.49,1.49,0,0,0,.84-.26l.64-.44a.68.68,0,0,0,.3-.57v-.61a.54.54,0,0,0-.14-.36L35.44,18.42c-.22-.17-2.84-2.2-5.52-2.2H21.34v32H-32.75l-.07,0a10.77,10.77,0,0,0-6-1.81,10.83,10.83,0,0,0-6,1.81l-.07,0H-60.38v-.28c0-.18.24-18.53.48-26.94s3-12.55,3.16-12.72l.27-.36H22a21.61,21.61,0,0,1,16.37,7c.4.4,11.77,12,13.41,13.76a20.25,20.25,0,0,0,4.28,3.23,29.71,29.71,0,0,1,8.21,5.17,10,10,0,0,1,3,8.41l0,.24L57,45.59Zm-28.46-.58H41a11.35,11.35,0,0,1,6.24-1.86,11.46,11.46,0,0,1,6.11,1.76L56.77,45l10,.12a9.6,9.6,0,0,0-2.87-7.69,29.53,29.53,0,0,0-8.06-5.06h0A21.39,21.39,0,0,1,51.39,29C49.74,27.27,38.1,15.4,38,15.28l0,0A21.1,21.1,0,0,0,22,8.48H-56.19l-.1.13s-2.82,4.1-3.06,12.41c-.22,7.82-.44,24.29-.47,26.65h14.73a11.41,11.41,0,0,1,6.26-1.86,11.36,11.36,0,0,1,6.25,1.86H20.79v-32h9.13c3,0,5.77,2.24,5.89,2.34l0,0L48.15,31.32a1.08,1.08,0,0,1,.29.74v.61a1.26,1.26,0,0,1-.54,1l-.64.44a2.12,2.12,0,0,1-1.16.36H38.48a10.6,10.6,0,0,1-3.66-.66,39.24,39.24,0,0,0-9.93-2.2Zm-77.92-2.32H-57V34.62h1.1a2.84,2.84,0,0,1,2.84,2.83Zm-3.38-.56h2.82V37.45a2.29,2.29,0,0,0-2.28-2.28h-.54ZM15.92,31.22H-5.39V15.66H15.92Zm-20.75-.55H15.36V16.22H-4.83Zm-5.43.55h-17V15.66h17Zm-16.44-.55h15.88V16.22H-26.7Zm-5.35.55H-53.36V15.66H-32Zm-20.75-.55h20.19V16.22H-52.8Z" transform="translate(62.14 -7.83)"/><path class="cls-3" d="M50.52,28.29l9.55-12.94a20.92,20.92,0,0,1,3.89-4,3.7,3.7,0,0,1,1.89-.7H66a4.27,4.27,0,0,1,1.23.22l.49.14L53.44,31Zm2.81,1.59L66.49,11.41a2.58,2.58,0,0,0-.51-.06h-.09a3,3,0,0,0-1.51.56,20,20,0,0,0-3.71,3.87L51.5,28.19Z" transform="translate(62.14 -7.83)"/><path class="cls-3" d="M53.43,30.85l-2.79-2.58,9.5-12.87a20.71,20.71,0,0,1,3.87-4,3.63,3.63,0,0,1,1.84-.68,4.09,4.09,0,0,1,1.33.21l.37.11Zm-2-2.65,2,1.82,13.3-18.67a2.84,2.84,0,0,0-.75-.09,3,3,0,0,0-1.55.58,20.06,20.06,0,0,0-3.75,3.89Z" transform="translate(62.14 -7.83)"/><path class="cls-3" d="M86.14,65.43,86,65.35a4.12,4.12,0,0,1-1.32-2.61L83.08,50.29a8.66,8.66,0,0,1-.14-2.81l.38-6.8a1.87,1.87,0,0,0-.46-1.35l-4.56-7-4.58,3a4.36,4.36,0,0,1-2.19.62,3.92,3.92,0,0,1-.76-.08l-6.87-1a2.71,2.71,0,0,1-.41-.09l-1.06,1.57-.3-.18a12.58,12.58,0,0,1-2-1.43l-.2-.19,3.78-6.72-.31-1.59.93-1.72,1.76-1,.78.46-1.07,2,1.2.7,1.08-2,.79.46.13,2-.93,1.71-1.6.63-.35.66,4.73.4a.34.34,0,0,0,.26-.1c.72-.66,2.37-2.12,3.69-3.29l.07-.06c.84-.73,1.61-1.42,2.11-1.87,1.28-1.15,2.4-2,4.1-2a6.27,6.27,0,0,1,.74.05A4.76,4.76,0,0,1,85.57,26l4.49,9.21a10,10,0,0,1,.48,5.2l-1.23,6.23a8.46,8.46,0,0,0,0,2.33l1.39,12.68a3.61,3.61,0,0,1-1.1,3.71l-.1.08Zm3.09-.73a3,3,0,0,0,.71-2.93L88.54,49a8.81,8.81,0,0,1,0-2.54l1.23-6.24a9.25,9.25,0,0,0-.44-4.79L84.91,26.3a4,4,0,0,0-3.2-2.38,4.58,4.58,0,0,0-.63-.05c-1.46,0-2.42.77-3.62,1.85l-2.18,1.93c-1.32,1.17-3,2.62-3.69,3.29a1.11,1.11,0,0,1-.75.28l-5.92-.5,1-1.86,1.61-.63.69-1.31-.07-1-.63,1.13a.55.55,0,0,1-.36.29.44.44,0,0,1-.16,0,.54.54,0,0,1-.3-.08l-1.43-.83a.61.61,0,0,1-.22-.82l.63-1.15-.88.46-.71,1.31.32,1.59-3.6,6.45a14.86,14.86,0,0,0,1.36,1l1-1.46.27.11a3.05,3.05,0,0,0,.54.14l6.89,1a2.7,2.7,0,0,0,.63.07,3.62,3.62,0,0,0,1.81-.52l5.18-3.36,5,7.63a2.52,2.52,0,0,1,.58,1.8l-.38,6.81a7.85,7.85,0,0,0,.13,2.63l1.62,12.47a3.47,3.47,0,0,0,1,2.06Z" transform="translate(62.14 -7.83)"/><path class="cls-3" d="M89.43,65.34H86.14l-.08-.06a4,4,0,0,1-1.28-2.55L83.17,50.28A8.56,8.56,0,0,1,83,47.49l.38-6.8a2,2,0,0,0-.48-1.41l0,0-4.58-7.06-4.66,3a4.1,4.1,0,0,1-2.88.53l-6.88-1a3.43,3.43,0,0,1-.46-.11L62.4,36.15,62.17,36a12.31,12.31,0,0,1-2-1.42L60,34.45l3.75-6.66-.31-1.64.92-1.67,1.69-.88.67.39-1.08,2,1.35.78,1.08-2,.68.39.12,1.93L68,28.76l-1.55.59-.46.81,4.86.42a.52.52,0,0,0,.33-.12c.71-.66,2.29-2.06,3.69-3.29L77,25.24c1.47-1.32,2.67-2.24,4.77-2A4.67,4.67,0,0,1,85.49,26L90,35.24a9.93,9.93,0,0,1,.48,5.14l-1.24,6.23a8.68,8.68,0,0,0,0,2.36l1.39,12.68a3.53,3.53,0,0,1-1.07,3.63Zm-3.09-.55h2.89a3,3,0,0,0,.79-3v0L88.63,49a9.07,9.07,0,0,1,0-2.52l1.24-6.23a9.33,9.33,0,0,0-.45-4.84L85,26.26a4.14,4.14,0,0,0-3.27-2.43c-1.86-.24-2.92.56-4.32,1.82l-2.18,1.93c-1.39,1.24-3,2.63-3.69,3.29a1,1,0,0,1-.73.26l-5.74-.49,1-1.74,1.56-.59L68.34,27l-.09-1.32L67.49,27a.54.54,0,0,1-.32.25.5.5,0,0,1-.38-.05l-1.43-.83a.52.52,0,0,1-.19-.71l.77-1.4-1.14.6-.74,1.34.3,1.65-3.63,6.45a14.34,14.34,0,0,0,1.51,1.06l1-1.47.21.08a2.42,2.42,0,0,0,.56.15l6.89,1a3.49,3.49,0,0,0,2.49-.46l5.11-3.32L83.4,39A2.44,2.44,0,0,1,84,40.72l-.38,6.82a8,8,0,0,0,.14,2.65l1.61,12.46A3.54,3.54,0,0,0,86.34,64.79ZM65.65,26Z" transform="translate(62.14 -7.83)"/><path class="cls-3" d="M74.48,65.35a3.33,3.33,0,0,1-1-3.25L75,47.59a3.61,3.61,0,0,1,1.08-2.05l6.4-6.46.32.48a1.62,1.62,0,0,1,.35,1.11l-.38,6.78c0,.15,0,.27,0,.39V48l-2.1,1.78L79.38,63.12a3.52,3.52,0,0,1-1.07,2.21l-.11.1H74.58Zm2.09-19.28a2.75,2.75,0,0,0-.86,1.63L74.23,62.2a2.71,2.71,0,0,0,.62,2.5h3.06A2.86,2.86,0,0,0,78.65,63L79.9,49.42,82,47.64l0-.25.38-6.76a.69.69,0,0,0-.06-.38Z" transform="translate(62.14 -7.83)"/><path class="cls-3" d="M74.61,65.34l-.07-.06a3.22,3.22,0,0,1-1-3.17L75.07,47.6a3.46,3.46,0,0,1,1.05-2l6.33-6.38.25.39a1.46,1.46,0,0,1,.34,1l-.38,6.79c0,.14,0,.26,0,.39V48l-2.1,1.79L79.29,63.11a3.49,3.49,0,0,1-1,2.16l-.08.07ZM82.36,40.1,76.5,46a2.94,2.94,0,0,0-.88,1.68L74.14,62.19a2.74,2.74,0,0,0,.68,2.6H78a3,3,0,0,0,.79-1.73L80,49.46l2.1-1.78,0-.28.38-6.77A.82.82,0,0,0,82.36,40.1Z" transform="translate(62.14 -7.83)"/><path class="cls-3" d="M76.23,24.35a4.37,4.37,0,0,1-2.2-.59A4.53,4.53,0,0,1,72,21.2l-1.78.57a1.71,1.71,0,0,1-.5.1.73.73,0,0,1-.48-.16c-.22-.16-.71-.58-.67-1a.66.66,0,0,1,.4-.52l2-1a.37.37,0,0,0,.08-.3,4.68,4.68,0,0,1,4.63-4.76H76a4.49,4.49,0,0,1,4.61,4.48,4.6,4.6,0,0,1-3.18,5.59A4.23,4.23,0,0,1,76.23,24.35ZM72.6,20.76a3.83,3.83,0,0,0,1.79,2.37,3.73,3.73,0,0,0,1.84.49,3.62,3.62,0,0,0,1-.13,3.89,3.89,0,0,0,2.66-4.75v-.06A3.77,3.77,0,0,0,76,14.85h-.26a4,4,0,0,0-3.94,4,1,1,0,0,1-.5,1l-2,.94a1.6,1.6,0,0,0,.35.34h0a1,1,0,0,0,.27-.05l2.51-.82Z" transform="translate(62.14 -7.83)"/><path class="cls-3" d="M76.23,24.27a4.28,4.28,0,0,1-2.16-.59,4.46,4.46,0,0,1-2-2.59l-1.85.6a.93.93,0,0,1-.91-.05c-.2-.15-.67-.55-.63-1a.56.56,0,0,1,.35-.46l2-.95c.11-.05.15-.23.14-.38a4.59,4.59,0,0,1,4.55-4.67A4.43,4.43,0,0,1,80.5,18.6a4.54,4.54,0,0,1-3.12,5.51h0A4.56,4.56,0,0,1,76.23,24.27Zm-3.81-3.89.09.4a3.93,3.93,0,0,0,1.84,2.42,3.72,3.72,0,0,0,2.88.37h0A4,4,0,0,0,80,18.72v0a3.86,3.86,0,0,0-4.23-3.9,4,4,0,0,0-4,4.09.92.92,0,0,1-.46.91l-2,1,0,0a1.16,1.16,0,0,0,.41.45s.11.05.41,0Z" transform="translate(62.14 -7.83)"/></g></g></g></svg>